{"glyphs":{"0":{"ha":881,"x_min":0,"x_max":0,"o":"m 440 -12 b 58 496 192 -12 58 215 b 440 1003 58 775 192 1003 b 822 496 689 1003 822 775 b 440 -12 822 215 689 -12 m 218 496 b 440 113 218 294 285 113 b 663 496 596 113 663 294 b 440 878 663 696 596 878 b 218 496 285 878 218 696 "},"1":{"ha":535,"x_min":0,"x_max":0,"o":"m 271 989 l 424 989 l 424 0 l 271 0 l 271 801 l 64 568 l 64 749 "},"2":{"ha":839,"x_min":0,"x_max":0,"o":"m 63 108 b 444 457 165 207 346 361 b 596 708 525 539 596 603 b 421 871 596 792 540 871 b 218 640 299 871 221 806 l 58 640 b 429 1006 61 854 178 1006 b 758 722 633 1006 758 886 b 317 161 758 535 640 457 l 275 126 l 771 126 l 771 0 l 63 0 l 63 108 "},"3":{"ha":867,"x_min":0,"x_max":0,"o":"m 619 501 b 790 258 738 460 790 378 b 439 -17 790 81 640 -17 b 76 297 194 -17 76 132 l 233 297 b 443 107 233 186 310 107 b 629 274 542 107 629 161 b 443 439 629 378 553 439 l 325 439 l 325 563 l 429 563 b 626 726 553 563 626 626 b 443 882 626 824 556 882 b 256 694 325 882 254 821 l 99 694 b 453 1006 99 858 204 1006 b 790 735 665 1006 790 892 b 619 501 790 621 733 543 "},"4":{"ha":819,"x_min":0,"x_max":0,"o":"m 50 210 l 50 351 l 506 989 l 664 989 l 664 335 l 776 335 l 776 210 l 664 210 l 664 0 l 506 0 l 506 210 m 506 335 l 506 783 l 194 335 "},"5":{"ha":883,"x_min":0,"x_max":0,"o":"m 428 -19 b 71 310 224 -19 68 117 l 235 310 b 442 108 229 161 332 108 b 640 332 564 108 640 200 b 453 536 640 446 574 536 b 261 432 358 536 296 481 l 108 432 l 201 989 l 774 989 l 774 856 l 338 856 l 289 589 b 496 657 347 632 418 657 b 796 333 693 657 796 513 b 428 -19 796 113 644 -19 "},"6":{"ha":861,"x_min":0,"x_max":0,"o":"m 439 -19 b 75 415 218 -19 76 128 b 203 878 74 588 111 764 b 479 1007 268 957 361 1007 b 779 738 668 1007 778 883 l 621 738 b 469 875 615 819 572 875 b 231 496 318 875 243 689 b 486 624 286 574 382 624 b 782 317 657 624 782 499 b 439 -19 782 113 638 -19 m 242 310 b 439 117 244 189 329 117 b 624 306 543 117 624 193 b 439 497 624 429 550 497 b 242 310 314 497 239 411 "},"7":{"ha":761,"x_min":0,"x_max":0,"o":"m 40 989 l 733 989 l 733 863 l 296 0 l 129 0 l 579 863 l 40 863 "},"8":{"ha":860,"x_min":0,"x_max":0,"o":"m 429 -21 b 64 263 211 -21 64 93 b 233 508 64 389 124 464 b 233 508 233 508 233 507 b 78 735 133 553 78 625 b 429 1007 78 882 211 1007 b 782 735 636 1007 782 892 b 625 507 782 624 726 551 b 625 507 625 507 624 507 b 796 263 736 463 796 389 b 429 -21 796 92 647 -21 m 226 281 b 431 108 226 174 306 107 b 633 281 556 108 633 174 b 429 439 633 389 549 439 b 226 281 314 439 226 389 m 233 713 b 429 564 233 617 317 564 b 626 713 543 564 626 617 b 431 879 626 819 557 881 b 233 713 306 879 233 819 "},"9":{"ha":861,"x_min":0,"x_max":0,"o":"m 422 1008 b 786 574 643 1008 785 861 b 658 111 788 401 750 225 b 382 -18 593 32 500 -18 b 82 251 193 -18 83 106 l 240 251 b 392 114 246 169 289 114 b 631 493 543 114 618 300 b 375 365 575 415 479 365 b 79 672 204 365 79 490 b 422 1008 79 876 224 1008 m 238 683 b 422 492 238 560 311 492 b 619 679 547 492 622 578 b 422 872 617 800 532 872 b 238 683 318 872 238 796 "}," ":{"ha":454,"x_min":0,"x_max":0,"o":""}," ":{"ha":454,"x_min":0,"x_max":0,"o":""},"A":{"ha":994,"x_min":0,"x_max":0,"o":"m 808 0 l 710 264 l 285 264 l 186 0 l 29 0 l 404 989 l 590 989 l 965 0 m 663 390 l 499 833 l 332 390 "},"Á":{"ha":994,"x_min":0,"x_max":0,"o":"m 808 0 l 710 264 l 285 264 l 186 0 l 29 0 l 404 989 l 590 989 l 965 0 m 663 390 l 499 833 l 332 390 m 536 1282 l 682 1282 l 529 1065 l 424 1065 "},"Ă":{"ha":994,"x_min":0,"x_max":0,"o":"m 808 0 l 710 264 l 285 264 l 186 0 l 29 0 l 404 989 l 590 989 l 965 0 m 382 1271 b 496 1147 383 1185 431 1147 b 610 1271 561 1147 608 1185 l 711 1271 b 496 1057 710 1131 610 1057 b 281 1271 382 1057 282 1131 m 663 390 l 499 833 l 332 390 "},"Ǎ":{"ha":994,"x_min":0,"x_max":0,"o":"m 808 0 l 710 264 l 285 264 l 186 0 l 29 0 l 404 989 l 590 989 l 965 0 m 358 1282 l 496 1133 l 497 1133 l 633 1282 l 754 1282 l 589 1065 l 401 1065 l 238 1282 m 663 390 l 499 833 l 332 390 "},"Â":{"ha":994,"x_min":0,"x_max":0,"o":"m 808 0 l 710 264 l 285 264 l 186 0 l 29 0 l 404 989 l 590 989 l 965 0 m 404 1282 l 592 1282 l 756 1065 l 632 1065 l 499 1214 l 364 1065 l 240 1065 m 663 390 l 499 833 l 332 390 "},"Ä":{"ha":994,"x_min":0,"x_max":0,"o":"m 808 0 l 710 264 l 285 264 l 186 0 l 29 0 l 404 989 l 590 989 l 965 0 m 257 1197 b 339 1278 257 1240 294 1278 b 418 1197 382 1278 418 1240 b 339 1115 418 1154 382 1115 b 257 1197 294 1115 257 1154 m 663 390 l 499 833 l 332 390 m 574 1197 b 654 1278 574 1240 610 1278 b 733 1197 697 1278 733 1240 b 654 1115 733 1154 697 1115 b 574 1197 610 1115 574 1154 "},"À":{"ha":994,"x_min":0,"x_max":0,"o":"m 808 0 l 710 264 l 285 264 l 186 0 l 29 0 l 404 989 l 590 989 l 965 0 m 454 1282 l 567 1065 l 461 1065 l 308 1282 m 663 390 l 499 833 l 332 390 "},"Ā":{"ha":994,"x_min":0,"x_max":0,"o":"m 808 0 l 710 264 l 285 264 l 186 0 l 29 0 l 404 989 l 590 989 l 965 0 m 663 390 l 499 833 l 332 390 m 338 1228 l 656 1228 l 656 1143 l 338 1143 "},"Ą":{"ha":994,"x_min":0,"x_max":0,"o":"m 965 0 b 847 -172 901 -51 847 -119 b 904 -232 847 -207 871 -232 b 967 -211 922 -232 942 -226 l 967 -282 b 846 -314 936 -304 882 -314 b 715 -196 772 -314 715 -262 b 850 0 715 -117 783 -46 l 808 0 l 710 264 l 285 264 l 186 0 l 29 0 l 404 989 l 590 989 l 965 0 m 663 390 l 499 833 l 332 390 "},"Å":{"ha":994,"x_min":0,"x_max":0,"o":"m 808 0 l 710 264 l 285 264 l 186 0 l 29 0 l 404 989 l 590 989 l 965 0 m 663 390 l 499 833 l 332 390 m 333 1221 b 496 1060 333 1133 406 1060 b 658 1221 583 1060 658 1133 b 496 1383 658 1310 583 1383 b 333 1221 406 1383 333 1310 m 421 1221 b 496 1297 421 1264 454 1297 b 571 1221 536 1297 571 1264 b 496 1146 571 1179 536 1146 b 421 1221 454 1146 421 1179 "},"Ã":{"ha":994,"x_min":0,"x_max":0,"o":"m 808 0 l 710 264 l 285 264 l 186 0 l 29 0 l 404 989 l 590 989 l 965 0 m 219 1094 b 375 1260 219 1194 290 1260 b 511 1207 428 1260 469 1236 b 603 1163 544 1183 571 1163 b 669 1236 647 1163 669 1189 l 669 1265 l 774 1265 l 774 1222 b 618 1063 774 1126 703 1063 b 482 1117 565 1063 524 1086 b 389 1160 449 1139 422 1160 b 324 1086 346 1160 324 1129 l 324 1057 l 219 1057 m 663 390 l 499 833 l 332 390 "},"Æ":{"ha":1375,"x_min":0,"x_max":0,"o":"m 404 989 l 1306 989 l 1306 861 l 783 861 l 783 571 l 1261 571 l 1261 449 l 783 449 l 783 131 l 1306 131 l 1306 0 l 626 0 l 626 264 l 282 264 l 185 0 l 29 0 m 626 390 l 626 858 l 503 858 l 329 390 "},"B":{"ha":942,"x_min":0,"x_max":0,"o":"m 111 989 l 575 989 b 847 732 733 989 847 899 b 689 508 847 614 776 531 b 874 275 801 489 874 407 b 593 0 874 67 743 0 l 111 0 m 544 131 b 710 292 647 131 710 178 b 538 451 710 393 647 451 l 269 451 b 269 131 269 451 269 131 m 543 564 b 690 711 628 564 690 608 b 535 857 690 803 635 857 l 269 857 b 269 564 269 857 269 564 "},"C":{"ha":1003,"x_min":0,"x_max":0,"o":"m 936 299 b 528 -17 903 104 746 -17 b 64 500 260 -17 64 190 b 529 1003 64 803 260 1003 b 931 669 749 1003 917 869 l 775 669 b 533 871 763 783 679 871 b 226 499 354 871 226 714 b 536 117 226 278 357 117 b 779 299 671 117 761 192 "},"Ć":{"ha":1003,"x_min":0,"x_max":0,"o":"m 936 299 b 528 -17 903 104 746 -17 b 64 500 260 -17 64 190 b 529 1003 64 803 260 1003 b 931 669 749 1003 917 869 l 775 669 b 533 871 763 783 679 871 b 226 499 354 871 226 714 b 536 117 226 278 357 117 b 779 299 671 117 761 192 m 554 1282 l 700 1282 l 547 1065 l 442 1065 "},"Č":{"ha":1003,"x_min":0,"x_max":0,"o":"m 936 299 b 528 -17 903 104 746 -17 b 64 500 260 -17 64 190 b 529 1003 64 803 260 1003 b 931 669 749 1003 917 869 l 775 669 b 533 871 763 783 679 871 b 226 499 354 871 226 714 b 536 117 226 278 357 117 b 779 299 671 117 761 192 m 376 1282 l 514 1133 l 515 1133 l 651 1282 l 772 1282 l 607 1065 l 419 1065 l 256 1282 "},"Ç":{"ha":1003,"x_min":0,"x_max":0,"o":"m 936 299 b 564 -15 904 115 763 -3 l 536 -67 b 579 -62 550 -62 564 -62 b 688 -176 643 -69 688 -114 b 531 -308 688 -246 631 -308 b 375 -218 469 -308 406 -281 l 446 -187 b 528 -235 463 -211 489 -235 b 597 -178 564 -235 597 -217 b 535 -126 597 -147 575 -126 b 478 -140 517 -126 496 -131 l 432 -104 l 478 -14 b 64 500 236 10 64 210 b 529 1003 64 803 260 1003 b 931 669 749 1003 917 869 l 775 669 b 533 871 763 783 679 871 b 226 499 354 871 226 714 b 536 117 226 278 357 117 b 779 299 671 117 761 192 "},"Ĉ":{"ha":1003,"x_min":0,"x_max":0,"o":"m 936 299 b 528 -17 903 104 746 -17 b 64 500 260 -17 64 190 b 529 1003 64 803 260 1003 b 931 669 749 1003 917 869 l 775 669 b 533 871 763 783 679 871 b 226 499 354 871 226 714 b 536 117 226 278 357 117 b 779 299 671 117 761 192 m 421 1282 l 608 1282 l 772 1065 l 649 1065 l 515 1214 l 381 1065 l 257 1065 "},"Ċ":{"ha":1003,"x_min":0,"x_max":0,"o":"m 936 299 b 528 -17 903 104 746 -17 b 64 500 260 -17 64 190 b 529 1003 64 803 260 1003 b 931 669 749 1003 917 869 l 775 669 b 533 871 763 783 679 871 b 226 499 354 871 226 714 b 536 117 226 278 357 117 b 779 299 671 117 761 192 m 419 1229 b 514 1324 419 1279 464 1324 b 607 1229 564 1324 607 1279 b 514 1135 607 1179 564 1135 b 419 1229 464 1135 419 1179 "},"D":{"ha":1060,"x_min":0,"x_max":0,"o":"m 111 989 l 518 989 b 996 503 776 989 996 829 b 518 0 996 147 758 0 l 111 0 m 494 131 b 833 503 685 131 833 260 b 494 858 833 715 707 858 l 268 858 l 268 131 b 268 131 268 131 269 131 "},"Ð":{"ha":1079,"x_min":0,"x_max":0,"o":"m 131 439 l 53 439 l 53 556 l 131 556 l 131 989 l 538 989 b 1015 503 796 989 1015 829 b 538 0 1015 147 778 0 l 131 0 m 514 131 b 853 503 704 131 853 260 b 514 858 853 715 726 858 l 288 858 l 288 556 l 485 556 l 485 439 l 288 439 l 288 131 b 288 131 288 131 289 131 "},"Ď":{"ha":1060,"x_min":0,"x_max":0,"o":"m 111 989 l 518 989 b 996 503 776 989 996 829 b 518 0 996 147 758 0 l 111 0 m 378 1282 l 515 1133 l 517 1133 l 653 1282 l 774 1282 l 608 1065 l 421 1065 l 257 1282 m 494 131 b 833 503 685 131 833 260 b 494 858 833 715 707 858 l 268 858 l 268 131 b 268 131 268 131 269 131 "},"Đ":{"ha":1079,"x_min":0,"x_max":0,"o":"m 131 439 l 53 439 l 53 556 l 131 556 l 131 989 l 538 989 b 1015 503 796 989 1015 829 b 538 0 1015 147 778 0 l 131 0 m 514 131 b 853 503 704 131 853 260 b 514 858 853 715 726 858 l 288 858 l 288 556 l 485 556 l 485 439 l 288 439 l 288 131 b 288 131 288 131 289 131 "},"E":{"ha":868,"x_min":0,"x_max":0,"o":"m 111 989 l 799 989 l 799 857 l 268 857 l 268 579 b 268 579 268 579 268 579 l 763 579 l 763 457 l 268 457 l 268 132 l 790 132 l 790 0 l 111 0 "},"É":{"ha":868,"x_min":0,"x_max":0,"o":"m 111 989 l 799 989 l 799 857 l 268 857 l 268 579 b 268 579 268 579 268 579 l 763 579 l 763 457 l 268 457 l 268 132 l 790 132 l 790 0 l 111 0 m 489 1282 l 635 1282 l 482 1065 l 376 1065 "},"Ě":{"ha":868,"x_min":0,"x_max":0,"o":"m 111 989 l 799 989 l 799 857 l 268 857 l 268 579 b 268 579 268 579 268 579 l 763 579 l 763 457 l 268 457 l 268 132 l 790 132 l 790 0 l 111 0 m 311 1282 l 449 1133 l 450 1133 l 586 1282 l 707 1282 l 542 1065 l 354 1065 l 190 1282 "},"Ê":{"ha":868,"x_min":0,"x_max":0,"o":"m 111 989 l 799 989 l 799 857 l 268 857 l 268 579 b 268 579 268 579 268 579 l 763 579 l 763 457 l 268 457 l 268 132 l 790 132 l 790 0 l 111 0 m 356 1282 l 543 1282 l 707 1065 l 583 1065 l 450 1214 l 315 1065 l 192 1065 "},"Ë":{"ha":868,"x_min":0,"x_max":0,"o":"m 111 989 l 799 989 l 799 857 l 268 857 l 268 579 b 268 579 268 579 268 579 l 763 579 l 763 457 l 268 457 l 268 132 l 790 132 l 790 0 l 111 0 m 210 1197 b 292 1278 210 1240 247 1278 b 371 1197 335 1278 371 1240 b 292 1115 371 1154 335 1115 b 210 1197 247 1115 210 1154 m 526 1197 b 607 1278 526 1240 563 1278 b 686 1197 650 1278 686 1240 b 607 1115 686 1154 650 1115 b 526 1197 563 1115 526 1154 "},"Ė":{"ha":868,"x_min":0,"x_max":0,"o":"m 111 989 l 799 989 l 799 857 l 268 857 l 268 579 b 268 579 268 579 268 579 l 763 579 l 763 457 l 268 457 l 268 132 l 790 132 l 790 0 l 111 0 m 354 1229 b 449 1324 354 1279 399 1324 b 542 1229 499 1324 542 1279 b 449 1135 542 1179 499 1135 b 354 1229 399 1135 354 1179 "},"È":{"ha":868,"x_min":0,"x_max":0,"o":"m 111 989 l 799 989 l 799 857 l 268 857 l 268 579 b 268 579 268 579 268 579 l 763 579 l 763 457 l 268 457 l 268 132 l 790 132 l 790 0 l 111 0 m 407 1282 l 519 1065 l 414 1065 l 261 1282 "},"Ē":{"ha":868,"x_min":0,"x_max":0,"o":"m 111 989 l 799 989 l 799 857 l 268 857 l 268 579 b 268 579 268 579 268 579 l 763 579 l 763 457 l 268 457 l 268 132 l 790 132 l 790 0 l 111 0 m 289 1228 l 607 1228 l 607 1143 l 289 1143 "},"Ę":{"ha":868,"x_min":0,"x_max":0,"o":"m 111 989 l 799 989 l 799 857 l 268 857 l 268 579 b 268 579 268 579 268 579 l 763 579 l 763 457 l 268 457 l 268 132 l 790 132 l 790 0 b 672 -172 726 -51 672 -119 b 729 -232 672 -207 696 -232 b 792 -211 747 -232 767 -226 l 792 -282 b 671 -314 761 -304 707 -314 b 540 -196 597 -314 540 -262 b 675 0 540 -117 608 -46 l 111 0 "},"Ẽ":{"ha":868,"x_min":0,"x_max":0,"o":"m 111 989 l 799 989 l 799 857 l 268 857 l 268 579 b 268 579 268 579 268 579 l 763 579 l 763 457 l 268 457 l 268 132 l 790 132 l 790 0 l 111 0 m 172 1094 b 328 1260 172 1194 243 1260 b 464 1207 381 1260 422 1236 b 556 1163 497 1183 524 1163 b 622 1236 600 1163 622 1189 l 622 1265 l 726 1265 l 726 1222 b 571 1063 726 1126 656 1063 b 435 1117 518 1063 476 1086 b 342 1160 401 1139 375 1160 b 276 1086 299 1160 276 1129 l 276 1057 l 172 1057 "},"F":{"ha":868,"x_min":0,"x_max":0,"o":"m 799 857 l 268 857 l 268 579 b 268 579 268 579 268 579 l 750 579 l 750 457 l 268 457 l 268 0 l 111 0 l 111 989 l 799 989 "},"G":{"ha":1032,"x_min":0,"x_max":0,"o":"m 64 500 b 532 1008 64 803 263 1008 b 931 672 750 1008 908 885 l 772 672 b 535 875 760 792 676 875 b 226 500 356 875 226 715 b 542 110 228 265 356 110 b 818 376 665 110 806 178 l 817 376 l 506 376 l 506 499 l 953 499 l 953 0 l 825 0 l 821 138 b 518 -19 753 31 643 -19 b 64 500 250 -19 64 183 "},"Ğ":{"ha":1032,"x_min":0,"x_max":0,"o":"m 64 500 b 532 1008 64 803 263 1008 b 931 672 750 1008 908 885 l 772 672 b 535 875 760 792 676 875 b 226 500 356 875 226 715 b 542 110 228 265 356 110 b 818 376 665 110 806 178 l 817 376 l 506 376 l 506 499 l 953 499 l 953 0 l 825 0 l 821 138 b 518 -19 753 31 643 -19 b 64 500 250 -19 64 183 m 403 1271 b 517 1147 404 1185 451 1147 b 631 1271 582 1147 629 1185 l 732 1271 b 517 1057 731 1131 631 1057 b 301 1271 403 1057 303 1131 "},"Ĝ":{"ha":1032,"x_min":0,"x_max":0,"o":"m 64 500 b 532 1008 64 803 263 1008 b 931 672 750 1008 908 885 l 772 672 b 535 875 760 792 676 875 b 226 500 356 875 226 715 b 542 110 228 265 356 110 b 818 376 665 110 806 178 l 817 376 l 506 376 l 506 499 l 953 499 l 953 0 l 825 0 l 821 138 b 518 -19 753 31 643 -19 b 64 500 250 -19 64 183 m 424 1282 l 611 1282 l 775 1065 l 651 1065 l 518 1214 l 383 1065 l 260 1065 "},"Ģ":{"ha":1032,"x_min":0,"x_max":0,"o":"m 64 500 b 532 1008 64 803 263 1008 b 931 672 750 1008 908 885 l 772 672 b 535 875 760 792 676 875 b 226 500 356 875 226 715 b 542 110 228 265 356 110 b 818 376 665 110 806 178 l 817 376 l 506 376 l 506 499 l 953 499 l 953 0 l 825 0 l 821 138 b 518 -19 753 31 643 -19 b 64 500 250 -19 64 183 m 429 -328 b 535 -240 492 -336 536 -299 b 444 -168 488 -244 444 -218 b 531 -83 444 -122 478 -83 b 635 -210 601 -83 635 -140 b 503 -385 635 -300 578 -371 b 429 -386 475 -390 453 -390 "},"Ġ":{"ha":1032,"x_min":0,"x_max":0,"o":"m 64 500 b 532 1008 64 803 263 1008 b 931 672 750 1008 908 885 l 772 672 b 535 875 760 792 676 875 b 226 500 356 875 226 715 b 542 110 228 265 356 110 b 818 376 665 110 806 178 l 817 376 l 506 376 l 506 499 l 953 499 l 953 0 l 825 0 l 821 138 b 518 -19 753 31 643 -19 b 64 500 250 -19 64 183 m 424 1229 b 518 1324 424 1279 468 1324 b 611 1229 568 1324 611 1279 b 518 1135 611 1179 568 1135 b 424 1229 468 1135 424 1179 "},"Ḡ":{"ha":1032,"x_min":0,"x_max":0,"o":"m 64 500 b 532 1008 64 803 263 1008 b 931 672 750 1008 908 885 l 772 672 b 535 875 760 792 676 875 b 226 500 356 875 226 715 b 542 110 228 265 356 110 b 818 376 665 110 806 178 l 817 376 l 506 376 l 506 499 l 953 499 l 953 0 l 825 0 l 821 138 b 518 -19 753 31 643 -19 b 64 500 250 -19 64 183 m 358 1228 l 676 1228 l 676 1143 l 358 1143 "},"H":{"ha":993,"x_min":0,"x_max":0,"o":"m 268 989 l 268 575 l 725 575 l 725 989 l 882 989 l 882 0 l 725 0 l 725 443 l 268 443 l 268 0 l 111 0 l 111 989 "},"Ĥ":{"ha":993,"x_min":0,"x_max":0,"o":"m 268 989 l 268 575 l 725 575 l 725 989 l 882 989 l 882 0 l 725 0 l 725 443 l 268 443 l 268 0 l 111 0 l 111 989 m 403 1282 l 590 1282 l 754 1065 l 631 1065 l 497 1214 l 363 1065 l 239 1065 "},"I":{"ha":379,"x_min":0,"x_max":0,"o":"m 268 0 l 113 0 l 111 989 l 268 989 "},"Ĳ":{"ha":903,"x_min":0,"x_max":0,"o":"m 268 0 l 113 0 l 111 989 l 268 989 m 411 138 b 568 122 476 111 528 107 b 649 251 621 136 649 182 l 649 989 l 806 989 l 806 238 b 546 -22 806 67 700 -22 b 411 1 493 -22 451 -11 "},"Í":{"ha":379,"x_min":0,"x_max":0,"o":"m 268 0 l 113 0 l 111 989 l 268 989 m 229 1282 l 375 1282 l 222 1065 l 117 1065 "},"Î":{"ha":379,"x_min":0,"x_max":0,"o":"m 268 0 l 113 0 l 111 989 l 268 989 m 96 1282 l 283 1282 l 447 1065 l 324 1065 l 190 1214 l 56 1065 l -68 1065 "},"Ï":{"ha":379,"x_min":0,"x_max":0,"o":"m 268 0 l 113 0 l 111 989 l 268 989 m -50 1197 b 32 1278 -50 1240 -12 1278 b 111 1197 75 1278 111 1240 b 32 1115 111 1154 75 1115 b -50 1197 -12 1115 -50 1154 m 267 1197 b 347 1278 267 1240 303 1278 b 426 1197 390 1278 426 1240 b 347 1115 426 1154 390 1115 b 267 1197 303 1115 267 1154 "},"İ":{"ha":379,"x_min":0,"x_max":0,"o":"m 268 0 l 113 0 l 111 989 l 268 989 m 96 1229 b 190 1324 96 1279 140 1324 b 283 1229 240 1324 283 1279 b 190 1135 283 1179 240 1135 b 96 1229 140 1135 96 1179 "},"Ì":{"ha":379,"x_min":0,"x_max":0,"o":"m 268 0 l 113 0 l 111 989 l 268 989 m 147 1282 l 260 1065 l 154 1065 l 1 1282 "},"Ī":{"ha":379,"x_min":0,"x_max":0,"o":"m 268 0 l 113 0 l 111 989 l 268 989 m 31 1228 l 349 1228 l 349 1143 l 31 1143 "},"Į":{"ha":379,"x_min":0,"x_max":0,"o":"m 268 0 b 150 -172 204 -51 150 -119 b 207 -232 150 -207 174 -232 b 269 -211 225 -232 244 -226 l 269 -282 b 149 -314 239 -304 185 -314 b 18 -196 75 -314 18 -262 b 153 0 18 -117 86 -46 l 113 0 l 111 989 l 268 989 "},"Ĩ":{"ha":379,"x_min":0,"x_max":0,"o":"m 268 0 l 113 0 l 111 989 l 268 989 m -87 1094 b 68 1260 -87 1194 -17 1260 b 204 1207 121 1260 163 1236 b 296 1163 238 1183 264 1163 b 363 1236 340 1163 363 1189 l 363 1265 l 467 1265 l 467 1222 b 311 1063 467 1126 396 1063 b 175 1117 258 1063 217 1086 b 82 1160 142 1139 115 1160 b 17 1086 39 1160 17 1129 l 17 1057 l -87 1057 "},"J":{"ha":546,"x_min":0,"x_max":0,"o":"m 449 238 b 189 -22 449 67 343 -22 b 54 1 136 -22 94 -11 l 54 138 b 211 122 119 111 171 107 b 292 251 264 136 292 182 l 292 989 l 449 989 l 449 238 "},"Ĵ":{"ha":546,"x_min":0,"x_max":0,"o":"m 449 238 b 189 -22 449 67 343 -22 b 54 1 136 -22 94 -11 l 54 138 b 211 122 119 111 171 107 b 292 251 264 136 292 182 l 292 989 l 449 989 l 449 238 m 275 1282 l 463 1282 l 626 1065 l 503 1065 l 369 1214 l 235 1065 l 111 1065 "},"K":{"ha":896,"x_min":0,"x_max":0,"o":"m 869 989 l 475 585 l 874 0 l 692 0 l 371 479 l 268 372 l 268 0 l 111 0 l 111 989 l 268 988 l 268 565 l 667 989 "},"Ķ":{"ha":896,"x_min":0,"x_max":0,"o":"m 869 989 l 475 585 l 874 0 l 692 0 l 371 479 l 268 372 l 268 0 l 111 0 l 111 989 l 268 988 l 268 565 l 667 989 m 347 -328 b 453 -240 410 -336 454 -299 b 363 -168 406 -244 363 -218 b 449 -83 363 -122 396 -83 b 553 -210 519 -83 553 -140 b 421 -385 553 -300 496 -371 b 347 -386 393 -390 371 -390 "},"L":{"ha":786,"x_min":0,"x_max":0,"o":"m 746 126 l 746 0 l 111 0 l 111 989 l 268 989 l 268 126 "},"Ĺ":{"ha":786,"x_min":0,"x_max":0,"o":"m 746 126 l 746 0 l 111 0 l 111 989 l 268 989 l 268 126 m 439 1282 l 585 1282 l 432 1065 l 326 1065 "},"Ľ":{"ha":786,"x_min":0,"x_max":0,"o":"m 746 126 l 746 0 l 111 0 l 111 989 l 268 989 l 268 126 m 532 761 b 638 849 594 753 639 790 b 547 921 590 844 547 871 b 633 1006 547 967 581 1006 b 738 879 704 1006 738 949 b 606 704 738 789 681 718 b 532 703 578 699 556 699 "},"Ļ":{"ha":786,"x_min":0,"x_max":0,"o":"m 746 126 l 746 0 l 111 0 l 111 989 l 268 989 l 268 126 m 299 -328 b 404 -240 361 -336 406 -299 b 314 -168 357 -244 314 -218 b 400 -83 314 -122 347 -83 b 504 -210 471 -83 504 -140 b 372 -385 504 -300 447 -371 b 299 -386 344 -390 322 -390 "},"Ł":{"ha":786,"x_min":0,"x_max":0,"o":"m 535 563 l 268 451 l 268 126 l 746 126 l 746 0 l 111 0 l 111 386 l -14 335 l -14 468 l 111 519 l 111 989 l 268 989 l 268 585 l 535 696 "},"M":{"ha":1233,"x_min":0,"x_max":0,"o":"m 111 989 l 346 989 l 617 214 l 888 989 l 1122 989 l 1122 0 l 964 0 l 964 774 l 686 0 l 547 0 l 269 774 l 269 0 l 111 0 "},"N":{"ha":1007,"x_min":0,"x_max":0,"o":"m 319 989 l 739 207 l 738 989 l 896 989 l 896 0 l 690 0 l 269 768 l 269 0 l 111 0 l 111 989 "},"Ń":{"ha":1007,"x_min":0,"x_max":0,"o":"m 319 989 l 739 207 l 738 989 l 896 989 l 896 0 l 690 0 l 269 768 l 269 0 l 111 0 l 111 989 m 538 1282 l 683 1282 l 531 1065 l 425 1065 "},"Ň":{"ha":1007,"x_min":0,"x_max":0,"o":"m 319 989 l 739 207 l 738 989 l 896 989 l 896 0 l 690 0 l 269 768 l 269 0 l 111 0 l 111 989 m 360 1282 l 497 1133 l 499 1133 l 635 1282 l 756 1282 l 590 1065 l 403 1065 l 239 1282 "},"Ņ":{"ha":1007,"x_min":0,"x_max":0,"o":"m 319 989 l 739 207 l 738 989 l 896 989 l 896 0 l 690 0 l 269 768 l 269 0 l 111 0 l 111 989 m 397 -328 b 503 -240 460 -336 504 -299 b 413 -168 456 -244 413 -218 b 499 -83 413 -122 446 -83 b 603 -210 569 -83 603 -140 b 471 -385 603 -300 546 -371 b 397 -386 443 -390 421 -390 "},"Ñ":{"ha":1007,"x_min":0,"x_max":0,"o":"m 319 989 l 739 207 l 738 989 l 896 989 l 896 0 l 690 0 l 269 768 l 269 0 l 111 0 l 111 989 m 221 1094 b 376 1260 221 1194 292 1260 b 513 1207 429 1260 471 1236 b 604 1163 546 1183 572 1163 b 671 1236 649 1163 671 1189 l 671 1265 l 775 1265 l 775 1222 b 619 1063 775 1126 704 1063 b 483 1117 567 1063 525 1086 b 390 1160 450 1139 424 1160 b 325 1086 347 1160 325 1129 l 325 1057 l 221 1057 "},"O":{"ha":1057,"x_min":0,"x_max":0,"o":"m 528 -21 b 64 500 243 -21 64 190 b 528 1006 64 799 243 1006 b 993 500 814 1006 993 799 b 528 -21 993 190 814 -21 m 226 499 b 528 114 226 263 358 114 b 829 499 699 114 829 263 b 528 872 829 739 699 872 b 226 499 358 872 226 739 "},"Ó":{"ha":1057,"x_min":0,"x_max":0,"o":"m 528 -21 b 64 500 243 -21 64 190 b 528 1006 64 799 243 1006 b 993 500 814 1006 993 799 b 528 -21 993 190 814 -21 m 226 499 b 528 114 226 263 358 114 b 829 499 699 114 829 263 b 528 872 829 739 699 872 b 226 499 358 872 226 739 m 564 1282 l 710 1282 l 557 1065 l 451 1065 "},"Ô":{"ha":1057,"x_min":0,"x_max":0,"o":"m 528 -21 b 64 500 243 -21 64 190 b 528 1006 64 799 243 1006 b 993 500 814 1006 993 799 b 528 -21 993 190 814 -21 m 226 499 b 528 114 226 263 358 114 b 829 499 699 114 829 263 b 528 872 829 739 699 872 b 226 499 358 872 226 739 m 431 1282 l 618 1282 l 782 1065 l 658 1065 l 525 1214 l 390 1065 l 267 1065 "},"Ö":{"ha":1057,"x_min":0,"x_max":0,"o":"m 528 -21 b 64 500 243 -21 64 190 b 528 1006 64 799 243 1006 b 993 500 814 1006 993 799 b 528 -21 993 190 814 -21 m 226 499 b 528 114 226 263 358 114 b 829 499 699 114 829 263 b 528 872 829 739 699 872 b 226 499 358 872 226 739 m 285 1197 b 367 1278 285 1240 322 1278 b 446 1197 410 1278 446 1240 b 367 1115 446 1154 410 1115 b 285 1197 322 1115 285 1154 m 601 1197 b 682 1278 601 1240 638 1278 b 761 1197 725 1278 761 1240 b 682 1115 761 1154 725 1115 b 601 1197 638 1115 601 1154 "},"Ò":{"ha":1057,"x_min":0,"x_max":0,"o":"m 528 -21 b 64 500 243 -21 64 190 b 528 1006 64 799 243 1006 b 993 500 814 1006 993 799 b 528 -21 993 190 814 -21 m 226 499 b 528 114 226 263 358 114 b 829 499 699 114 829 263 b 528 872 829 739 699 872 b 226 499 358 872 226 739 m 482 1282 l 594 1065 l 489 1065 l 336 1282 "},"Ő":{"ha":1057,"x_min":0,"x_max":0,"o":"m 528 -21 b 64 500 243 -21 64 190 b 528 1006 64 799 243 1006 b 993 500 814 1006 993 799 b 528 -21 993 190 814 -21 m 226 499 b 528 114 226 263 358 114 b 829 499 699 114 829 263 b 528 872 829 739 699 872 b 226 499 358 872 226 739 m 468 1282 l 607 1282 l 433 1065 l 331 1065 m 667 1282 l 806 1282 l 632 1065 l 529 1065 "},"Ō":{"ha":1057,"x_min":0,"x_max":0,"o":"m 528 -21 b 64 500 243 -21 64 190 b 528 1006 64 799 243 1006 b 993 500 814 1006 993 799 b 528 -21 993 190 814 -21 m 226 499 b 528 114 226 263 358 114 b 829 499 699 114 829 263 b 528 872 829 739 699 872 b 226 499 358 872 226 739 m 365 1228 l 683 1228 l 683 1143 l 365 1143 "},"Ø":{"ha":1057,"x_min":0,"x_max":0,"o":"m 528 -21 b 318 25 449 -21 379 -4 l 278 -47 l 196 -47 l 256 63 b 64 500 133 151 64 307 b 528 1006 64 799 243 1006 b 747 957 611 1006 685 989 l 783 1022 l 865 1022 l 808 918 b 993 500 926 831 993 683 b 528 -21 993 190 814 -21 m 226 499 b 331 199 226 368 267 265 l 678 831 b 528 872 635 858 583 872 b 226 499 358 872 226 739 m 388 153 b 528 114 429 128 476 114 b 829 499 699 114 829 263 b 735 785 829 625 793 721 l 388 153 "},"Õ":{"ha":1057,"x_min":0,"x_max":0,"o":"m 528 -21 b 64 500 243 -21 64 190 b 528 1006 64 799 243 1006 b 993 500 814 1006 993 799 b 528 -21 993 190 814 -21 m 226 499 b 528 114 226 263 358 114 b 829 499 699 114 829 263 b 528 872 829 739 699 872 b 226 499 358 872 226 739 m 247 1094 b 403 1260 247 1194 318 1260 b 539 1207 456 1260 497 1236 b 631 1163 572 1183 599 1163 b 697 1236 675 1163 697 1189 l 697 1265 l 801 1265 l 801 1222 b 646 1063 801 1126 731 1063 b 510 1117 593 1063 551 1086 b 417 1160 476 1139 450 1160 b 351 1086 374 1160 351 1129 l 351 1057 l 247 1057 "},"Œ":{"ha":1594,"x_min":0,"x_max":0,"o":"m 528 -21 b 64 500 243 -21 64 190 b 528 1006 64 799 243 1006 b 838 894 654 1006 760 965 l 838 989 l 1525 989 l 1525 857 l 994 857 l 994 579 b 994 579 994 579 994 579 l 1489 579 l 1489 457 l 994 457 l 994 132 l 1517 132 l 1517 0 l 838 0 l 838 93 b 528 -21 760 21 654 -21 m 226 499 b 528 114 226 263 358 114 b 829 499 699 114 829 263 b 528 872 829 739 699 872 b 226 499 358 872 226 739 "},"P":{"ha":918,"x_min":0,"x_max":0,"o":"m 883 683 b 556 372 883 463 722 372 l 268 372 l 268 0 l 111 0 l 111 989 l 553 989 b 883 683 729 989 883 890 m 529 494 b 719 682 650 494 719 569 b 529 863 719 790 650 863 l 268 863 l 268 494 "},"Þ":{"ha":899,"x_min":0,"x_max":0,"o":"m 268 807 l 543 807 b 864 501 725 807 864 708 b 549 190 864 264 710 190 l 268 190 l 268 0 l 111 0 l 111 989 l 268 989 m 508 313 b 697 500 631 313 697 367 b 510 679 697 608 631 679 l 268 679 l 268 313 "},"Q":{"ha":1099,"x_min":0,"x_max":0,"o":"m 993 500 b 885 143 993 356 954 233 l 1026 0 l 846 0 l 788 57 b 528 -21 717 7 631 -21 b 64 500 243 -21 64 190 b 528 1006 64 799 243 1006 b 993 500 814 1006 993 799 m 226 499 b 528 114 226 263 358 114 b 678 164 583 114 635 131 l 526 313 l 624 404 l 736 292 b 767 261 746 282 756 271 b 829 499 806 321 829 400 b 528 872 829 739 699 872 b 226 499 358 872 226 739 "},"R":{"ha":960,"x_min":0,"x_max":0,"o":"m 111 989 l 581 989 b 868 718 747 989 868 901 b 683 465 868 578 772 492 b 814 365 757 463 800 418 l 860 185 b 914 8 879 111 896 43 l 914 0 l 743 0 l 664 332 b 538 421 649 394 618 421 l 268 421 l 268 0 l 111 0 m 522 549 b 710 710 629 549 710 599 b 535 863 710 821 631 863 l 268 863 b 268 549 268 863 268 549 "},"Ŕ":{"ha":960,"x_min":0,"x_max":0,"o":"m 111 989 l 581 989 b 868 718 747 989 868 901 b 683 465 868 578 772 492 b 814 365 757 463 800 418 l 860 185 b 914 8 879 111 896 43 l 914 0 l 743 0 l 664 332 b 538 421 649 394 618 421 l 268 421 l 268 0 l 111 0 m 522 549 b 710 710 629 549 710 599 b 535 863 710 821 631 863 l 268 863 b 268 549 268 863 268 549 m 521 1282 l 667 1282 l 514 1065 l 408 1065 "},"Ř":{"ha":960,"x_min":0,"x_max":0,"o":"m 111 989 l 581 989 b 868 718 747 989 868 901 b 683 465 868 578 772 492 b 814 365 757 463 800 418 l 860 185 b 914 8 879 111 896 43 l 914 0 l 743 0 l 664 332 b 538 421 649 394 618 421 l 268 421 l 268 0 l 111 0 m 343 1282 l 481 1133 l 482 1133 l 618 1282 l 739 1282 l 574 1065 l 386 1065 l 222 1282 m 522 549 b 710 710 629 549 710 599 b 535 863 710 821 631 863 l 268 863 b 268 549 268 863 268 549 "},"Ŗ":{"ha":960,"x_min":0,"x_max":0,"o":"m 111 989 l 581 989 b 868 718 747 989 868 901 b 683 465 868 578 772 492 b 814 365 757 463 800 418 l 860 185 b 914 8 879 111 896 43 l 914 0 l 743 0 l 664 332 b 538 421 649 394 618 421 l 268 421 l 268 0 l 111 0 m 522 549 b 710 710 629 549 710 599 b 535 863 710 821 631 863 l 268 863 b 268 549 268 863 268 549 m 379 -328 b 485 -240 442 -336 486 -299 b 394 -168 438 -244 394 -218 b 481 -83 394 -122 428 -83 b 585 -210 551 -83 585 -140 b 453 -385 585 -300 528 -371 b 379 -386 425 -390 403 -390 "},"S":{"ha":900,"x_min":0,"x_max":0,"o":"m 221 315 b 463 113 222 172 317 113 b 683 260 597 113 683 165 b 517 414 683 343 622 388 l 318 468 b 74 726 167 507 74 586 b 442 1008 74 894 210 1008 b 821 704 661 1008 813 924 l 658 704 b 433 878 658 818 586 878 b 235 742 310 878 235 819 b 428 593 235 658 308 622 l 575 554 b 844 274 747 510 844 429 b 460 -19 844 81 682 -19 b 56 315 233 -19 56 83 "},"Ś":{"ha":900,"x_min":0,"x_max":0,"o":"m 221 315 b 463 113 222 172 317 113 b 683 260 597 113 683 165 b 517 414 683 343 622 388 l 318 468 b 74 726 167 507 74 586 b 442 1008 74 894 210 1008 b 821 704 661 1008 813 924 l 658 704 b 433 878 658 818 586 878 b 235 742 310 878 235 819 b 428 593 235 658 308 622 l 575 554 b 844 274 747 510 844 429 b 460 -19 844 81 682 -19 b 56 315 233 -19 56 83 m 490 1282 l 636 1282 l 483 1065 l 378 1065 "},"Š":{"ha":900,"x_min":0,"x_max":0,"o":"m 221 315 b 463 113 222 172 317 113 b 683 260 597 113 683 165 b 517 414 683 343 622 388 l 318 468 b 74 726 167 507 74 586 b 442 1008 74 894 210 1008 b 821 704 661 1008 813 924 l 658 704 b 433 878 658 818 586 878 b 235 742 310 878 235 819 b 428 593 235 658 308 622 l 575 554 b 844 274 747 510 844 429 b 460 -19 844 81 682 -19 b 56 315 233 -19 56 83 m 313 1282 l 450 1133 l 451 1133 l 588 1282 l 708 1282 l 543 1065 l 356 1065 l 192 1282 "},"Ş":{"ha":900,"x_min":0,"x_max":0,"o":"m 221 315 b 463 113 222 172 317 113 b 683 260 597 113 683 165 b 517 414 683 343 622 388 l 318 468 b 74 726 167 507 74 586 b 442 1008 74 894 210 1008 b 821 704 661 1008 813 924 l 658 704 b 433 878 658 818 586 878 b 235 742 310 878 235 819 b 428 593 235 658 308 622 l 575 554 b 844 274 747 510 844 429 b 490 -19 844 89 696 -10 l 464 -67 b 507 -62 478 -62 492 -62 b 615 -176 571 -69 615 -114 b 458 -308 615 -246 558 -308 b 303 -218 397 -308 333 -281 l 374 -187 b 456 -235 390 -211 417 -235 b 525 -178 492 -235 525 -217 b 463 -126 525 -147 503 -126 b 406 -140 444 -126 424 -131 l 360 -104 l 404 -17 b 56 315 204 -1 56 103 "},"Ŝ":{"ha":900,"x_min":0,"x_max":0,"o":"m 221 315 b 463 113 222 172 317 113 b 683 260 597 113 683 165 b 517 414 683 343 622 388 l 318 468 b 74 726 167 507 74 586 b 442 1008 74 894 210 1008 b 821 704 661 1008 813 924 l 658 704 b 433 878 658 818 586 878 b 235 742 310 878 235 819 b 428 593 235 658 308 622 l 575 554 b 844 274 747 510 844 429 b 460 -19 844 81 682 -19 b 56 315 233 -19 56 83 m 357 1282 l 544 1282 l 708 1065 l 585 1065 l 451 1214 l 317 1065 l 193 1065 "},"Ș":{"ha":900,"x_min":0,"x_max":0,"o":"m 221 315 b 463 113 222 172 317 113 b 683 260 597 113 683 165 b 517 414 683 343 622 388 l 318 468 b 74 726 167 507 74 586 b 442 1008 74 894 210 1008 b 821 704 661 1008 813 924 l 658 704 b 433 878 658 818 586 878 b 235 742 310 878 235 819 b 428 593 235 658 308 622 l 575 554 b 844 274 747 510 844 429 b 460 -19 844 81 682 -19 b 56 315 233 -19 56 83 m 350 -328 b 456 -240 413 -336 457 -299 b 365 -168 408 -244 365 -218 b 451 -83 365 -122 399 -83 b 556 -210 522 -83 556 -140 b 424 -385 556 -300 499 -371 b 350 -386 396 -390 374 -390 "},"ẞ":{"ha":960,"x_min":0,"x_max":0,"o":"m 557 989 b 871 731 753 989 871 879 b 715 496 871 614 824 542 b 892 257 828 456 892 378 b 549 -24 892 79 754 -24 b 383 -1 493 -24 428 -12 l 383 136 b 540 110 451 118 497 110 b 728 281 656 110 728 171 b 517 439 728 385 651 439 l 413 439 l 413 553 l 522 553 b 713 708 653 553 713 617 b 544 857 713 793 650 857 l 268 857 l 268 0 l 111 0 l 111 989 l 557 989 "},"T":{"ha":960,"x_min":0,"x_max":0,"o":"m 938 989 l 938 857 l 558 857 l 558 0 l 401 0 l 401 857 l 24 857 l 24 989 "},"Ť":{"ha":960,"x_min":0,"x_max":0,"o":"m 938 989 l 938 857 l 558 857 l 558 0 l 401 0 l 401 857 l 24 857 l 24 989 m 343 1282 l 481 1133 l 482 1133 l 618 1282 l 739 1282 l 574 1065 l 386 1065 l 222 1282 "},"Ţ":{"ha":960,"x_min":0,"x_max":0,"o":"m 938 989 l 938 857 l 558 857 l 558 0 l 531 0 l 494 -67 b 536 -62 508 -62 521 -62 b 644 -176 600 -69 644 -114 b 488 -308 644 -246 588 -308 b 332 -218 426 -308 363 -281 l 403 -187 b 485 -235 419 -211 446 -235 b 554 -178 521 -235 554 -217 b 492 -126 554 -147 532 -126 b 435 -140 474 -126 453 -131 l 386 -104 l 439 0 l 401 0 l 401 857 l 24 857 l 24 989 "},"Ț":{"ha":960,"x_min":0,"x_max":0,"o":"m 938 989 l 938 857 l 558 857 l 558 0 l 401 0 l 401 857 l 24 857 l 24 989 m 379 -328 b 485 -240 442 -336 486 -299 b 394 -168 438 -244 394 -218 b 481 -83 394 -122 428 -83 b 585 -210 551 -83 585 -140 b 453 -385 585 -300 528 -371 b 379 -386 425 -390 403 -390 "},"U":{"ha":908,"x_min":0,"x_max":0,"o":"m 842 408 b 454 -15 842 174 764 -15 b 67 408 144 -15 67 174 l 67 989 l 225 989 l 225 372 b 454 111 225 201 307 111 b 683 372 601 111 683 201 l 683 989 l 842 989 l 842 408 "},"Ú":{"ha":908,"x_min":0,"x_max":0,"o":"m 842 408 b 454 -15 842 174 764 -15 b 67 408 144 -15 67 174 l 67 989 l 225 989 l 225 372 b 454 111 225 201 307 111 b 683 372 601 111 683 201 l 683 989 l 842 989 l 842 408 m 494 1282 l 640 1282 l 488 1065 l 382 1065 "},"Ŭ":{"ha":908,"x_min":0,"x_max":0,"o":"m 842 408 b 454 -15 842 174 764 -15 b 67 408 144 -15 67 174 l 67 989 l 225 989 l 225 372 b 454 111 225 201 307 111 b 683 372 601 111 683 201 l 683 989 l 842 989 l 842 408 m 340 1271 b 454 1147 342 1185 389 1147 b 568 1271 519 1147 567 1185 l 669 1271 b 454 1057 668 1131 568 1057 b 239 1271 340 1057 240 1131 "},"Û":{"ha":908,"x_min":0,"x_max":0,"o":"m 842 408 b 454 -15 842 174 764 -15 b 67 408 144 -15 67 174 l 67 989 l 225 989 l 225 372 b 454 111 225 201 307 111 b 683 372 601 111 683 201 l 683 989 l 842 989 l 842 408 m 361 1282 l 549 1282 l 713 1065 l 589 1065 l 456 1214 l 321 1065 l 197 1065 "},"Ü":{"ha":908,"x_min":0,"x_max":0,"o":"m 842 408 b 454 -15 842 174 764 -15 b 67 408 144 -15 67 174 l 67 989 l 225 989 l 225 372 b 454 111 225 201 307 111 b 683 372 601 111 683 201 l 683 989 l 842 989 l 842 408 m 215 1197 b 297 1278 215 1240 253 1278 b 376 1197 340 1278 376 1240 b 297 1115 376 1154 340 1115 b 215 1197 253 1115 215 1154 m 532 1197 b 613 1278 532 1240 568 1278 b 692 1197 656 1278 692 1240 b 613 1115 692 1154 656 1115 b 532 1197 568 1115 532 1154 "},"Ù":{"ha":908,"x_min":0,"x_max":0,"o":"m 842 408 b 454 -15 842 174 764 -15 b 67 408 144 -15 67 174 l 67 989 l 225 989 l 225 372 b 454 111 225 201 307 111 b 683 372 601 111 683 201 l 683 989 l 842 989 l 842 408 m 413 1282 l 525 1065 l 419 1065 l 267 1282 "},"Ű":{"ha":908,"x_min":0,"x_max":0,"o":"m 842 408 b 454 -15 842 174 764 -15 b 67 408 144 -15 67 174 l 67 989 l 225 989 l 225 372 b 454 111 225 201 307 111 b 683 372 601 111 683 201 l 683 989 l 842 989 l 842 408 m 399 1282 l 538 1282 l 364 1065 l 261 1065 m 597 1282 l 736 1282 l 563 1065 l 460 1065 "},"Ū":{"ha":908,"x_min":0,"x_max":0,"o":"m 842 408 b 454 -15 842 174 764 -15 b 67 408 144 -15 67 174 l 67 989 l 225 989 l 225 372 b 454 111 225 201 307 111 b 683 372 601 111 683 201 l 683 989 l 842 989 l 842 408 m 294 1228 l 613 1228 l 613 1143 l 294 1143 "},"Ų":{"ha":908,"x_min":0,"x_max":0,"o":"m 842 408 b 622 8 842 224 793 67 b 510 -158 561 -42 510 -107 b 567 -218 510 -193 533 -218 b 629 -197 585 -218 604 -212 l 629 -268 b 508 -300 599 -290 544 -300 b 378 -182 435 -300 378 -249 b 475 -15 378 -118 422 -60 l 454 -15 b 67 408 144 -15 67 174 l 67 989 l 225 989 l 225 372 b 454 111 225 201 307 111 b 683 372 601 111 683 201 l 683 989 l 842 989 l 842 408 "},"Ů":{"ha":908,"x_min":0,"x_max":0,"o":"m 842 408 b 454 -15 842 174 764 -15 b 67 408 144 -15 67 174 l 67 989 l 225 989 l 225 372 b 454 111 225 201 307 111 b 683 372 601 111 683 201 l 683 989 l 842 989 l 842 408 m 292 1221 b 454 1060 292 1133 364 1060 b 617 1221 542 1060 617 1133 b 454 1383 617 1310 542 1383 b 292 1221 364 1383 292 1310 m 379 1221 b 454 1297 379 1264 413 1297 b 529 1221 494 1297 529 1264 b 454 1146 529 1179 494 1146 b 379 1221 413 1146 379 1179 "},"Ũ":{"ha":908,"x_min":0,"x_max":0,"o":"m 842 408 b 454 -15 842 174 764 -15 b 67 408 144 -15 67 174 l 67 989 l 225 989 l 225 372 b 454 111 225 201 307 111 b 683 372 601 111 683 201 l 683 989 l 842 989 l 842 408 m 178 1094 b 333 1260 178 1194 249 1260 b 469 1207 386 1260 428 1236 b 561 1163 503 1183 529 1163 b 628 1236 606 1163 628 1189 l 628 1265 l 732 1265 l 732 1222 b 576 1063 732 1126 661 1063 b 440 1117 524 1063 482 1086 b 347 1160 407 1139 381 1160 b 282 1086 304 1160 282 1129 l 282 1057 l 178 1057 "},"V":{"ha":964,"x_min":0,"x_max":0,"o":"m 31 989 l 206 989 l 482 189 l 758 989 l 933 989 l 567 0 l 397 0 "},"W":{"ha":1531,"x_min":0,"x_max":0,"o":"m 31 989 l 204 989 l 436 158 l 681 989 l 850 989 l 1094 157 l 1328 989 l 1500 989 l 1192 0 l 999 0 l 765 778 l 532 0 l 339 0 "},"Ẃ":{"ha":1531,"x_min":0,"x_max":0,"o":"m 31 989 l 204 989 l 436 158 l 681 989 l 850 989 l 1094 157 l 1328 989 l 1500 989 l 1192 0 l 999 0 l 765 778 l 532 0 l 339 0 m 806 1282 l 951 1282 l 799 1065 l 693 1065 "},"Ŵ":{"ha":1531,"x_min":0,"x_max":0,"o":"m 31 989 l 204 989 l 436 158 l 681 989 l 850 989 l 1094 157 l 1328 989 l 1500 989 l 1192 0 l 999 0 l 765 778 l 532 0 l 339 0 m 672 1282 l 860 1282 l 1024 1065 l 900 1065 l 767 1214 l 632 1065 l 508 1065 "},"Ẅ":{"ha":1531,"x_min":0,"x_max":0,"o":"m 31 989 l 204 989 l 436 158 l 681 989 l 850 989 l 1094 157 l 1328 989 l 1500 989 l 1192 0 l 999 0 l 765 778 l 532 0 l 339 0 m 526 1197 b 608 1278 526 1240 564 1278 b 688 1197 651 1278 688 1240 b 608 1115 688 1154 651 1115 b 526 1197 564 1115 526 1154 m 843 1197 b 924 1278 843 1240 879 1278 b 1003 1197 967 1278 1003 1240 b 924 1115 1003 1154 967 1115 b 843 1197 879 1115 843 1154 "},"Ẁ":{"ha":1531,"x_min":0,"x_max":0,"o":"m 31 989 l 204 989 l 436 158 l 681 989 l 850 989 l 1094 157 l 1328 989 l 1500 989 l 1192 0 l 999 0 l 765 778 l 532 0 l 339 0 m 724 1282 l 836 1065 l 731 1065 l 578 1282 "},"X":{"ha":990,"x_min":0,"x_max":0,"o":"m 401 497 l 47 989 l 240 989 l 496 626 l 750 989 l 943 989 l 589 497 l 949 0 l 756 0 l 494 369 l 235 0 l 42 0 "},"Y":{"ha":928,"x_min":0,"x_max":0,"o":"m 43 989 l 218 989 l 464 525 l 711 989 l 885 989 l 543 374 l 543 0 l 386 0 l 386 374 "},"Ý":{"ha":928,"x_min":0,"x_max":0,"o":"m 43 989 l 218 989 l 464 525 l 711 989 l 885 989 l 543 374 l 543 0 l 386 0 l 386 374 m 513 1282 l 658 1282 l 506 1065 l 400 1065 "},"Ŷ":{"ha":928,"x_min":0,"x_max":0,"o":"m 43 989 l 218 989 l 464 525 l 711 989 l 885 989 l 543 374 l 543 0 l 386 0 l 386 374 m 379 1282 l 567 1282 l 731 1065 l 607 1065 l 474 1214 l 339 1065 l 215 1065 "},"Ÿ":{"ha":928,"x_min":0,"x_max":0,"o":"m 43 989 l 218 989 l 464 525 l 711 989 l 885 989 l 543 374 l 543 0 l 386 0 l 386 374 m 233 1197 b 315 1278 233 1240 271 1278 b 394 1197 358 1278 394 1240 b 315 1115 394 1154 358 1115 b 233 1197 271 1115 233 1154 m 550 1197 b 631 1278 550 1240 586 1278 b 710 1197 674 1278 710 1240 b 631 1115 710 1154 674 1115 b 550 1197 586 1115 550 1154 "},"Ỳ":{"ha":928,"x_min":0,"x_max":0,"o":"m 43 989 l 218 989 l 464 525 l 711 989 l 885 989 l 543 374 l 543 0 l 386 0 l 386 374 m 431 1282 l 543 1065 l 438 1065 l 285 1282 "},"Ỹ":{"ha":928,"x_min":0,"x_max":0,"o":"m 43 989 l 218 989 l 464 525 l 711 989 l 885 989 l 543 374 l 543 0 l 386 0 l 386 374 m 196 1094 b 351 1260 196 1194 267 1260 b 488 1207 404 1260 446 1236 b 579 1163 521 1183 547 1163 b 646 1236 624 1163 646 1189 l 646 1265 l 750 1265 l 750 1222 b 594 1063 750 1126 679 1063 b 458 1117 542 1063 500 1086 b 365 1160 425 1139 399 1160 b 300 1086 322 1160 300 1129 l 300 1057 l 196 1057 "},"Z":{"ha":833,"x_min":0,"x_max":0,"o":"m 47 989 l 788 989 l 788 857 l 225 131 l 788 131 l 788 0 l 47 0 l 47 131 l 608 858 l 47 858 "},"Ź":{"ha":833,"x_min":0,"x_max":0,"o":"m 47 989 l 788 989 l 788 857 l 225 131 l 788 131 l 788 0 l 47 0 l 47 131 l 608 858 l 47 858 m 451 1282 l 597 1282 l 444 1065 l 339 1065 "},"Ž":{"ha":833,"x_min":0,"x_max":0,"o":"m 47 989 l 788 989 l 788 857 l 225 131 l 788 131 l 788 0 l 47 0 l 47 131 l 608 858 l 47 858 m 274 1282 l 411 1133 l 413 1133 l 549 1282 l 669 1282 l 504 1065 l 317 1065 l 153 1282 "},"Ż":{"ha":833,"x_min":0,"x_max":0,"o":"m 47 989 l 788 989 l 788 857 l 225 131 l 788 131 l 788 0 l 47 0 l 47 131 l 608 858 l 47 858 m 318 1229 b 413 1324 318 1279 363 1324 b 506 1229 463 1324 506 1279 b 413 1135 506 1179 463 1135 b 318 1229 363 1135 318 1179 "},"a":{"ha":758,"x_min":0,"x_max":0,"o":"m 271 -17 b 51 174 151 -17 51 47 b 269 400 51 296 138 372 l 518 454 l 518 478 b 357 608 518 556 461 608 b 206 467 276 608 210 572 l 58 467 b 356 714 63 619 176 714 b 671 457 563 714 671 608 l 671 172 b 686 7 671 93 675 40 l 686 0 l 536 0 b 521 110 528 28 524 69 l 521 147 b 518 143 519 146 519 144 b 271 -17 471 50 388 -17 m 208 182 b 317 82 208 117 258 82 b 519 336 431 82 519 193 l 519 361 l 329 308 b 208 182 247 288 208 244 "},"á":{"ha":758,"x_min":0,"x_max":0,"o":"m 271 -17 b 51 174 151 -17 51 47 b 269 400 51 296 138 372 l 518 454 l 518 478 b 357 608 518 556 461 608 b 206 467 276 608 210 572 l 58 467 b 356 714 63 619 176 714 b 671 457 563 714 671 608 l 671 172 b 686 7 671 93 675 40 l 686 0 l 536 0 b 521 110 528 28 524 69 l 521 147 b 518 143 519 146 519 144 b 271 -17 471 50 388 -17 m 208 182 b 317 82 208 117 258 82 b 519 336 431 82 519 193 l 519 361 l 329 308 b 208 182 247 288 208 244 m 408 988 l 554 988 l 401 771 l 296 771 "},"ă":{"ha":758,"x_min":0,"x_max":0,"o":"m 271 -17 b 51 174 151 -17 51 47 b 269 400 51 296 138 372 l 518 454 l 518 478 b 357 608 518 556 461 608 b 206 467 276 608 210 572 l 58 467 b 356 714 63 619 176 714 b 671 457 563 714 671 608 l 671 172 b 686 7 671 93 675 40 l 686 0 l 536 0 b 521 110 528 28 524 69 l 521 147 b 518 143 519 146 519 144 b 271 -17 471 50 388 -17 m 254 976 b 368 853 256 890 303 853 b 482 976 433 853 481 890 l 583 976 b 368 763 582 836 482 763 b 153 976 254 763 154 836 m 208 182 b 317 82 208 117 258 82 b 519 336 431 82 519 193 l 519 361 l 329 308 b 208 182 247 288 208 244 "},"ǎ":{"ha":758,"x_min":0,"x_max":0,"o":"m 271 -17 b 51 174 151 -17 51 47 b 269 400 51 296 138 372 l 518 454 l 518 478 b 357 608 518 556 461 608 b 206 467 276 608 210 572 l 58 467 b 356 714 63 619 176 714 b 671 457 563 714 671 608 l 671 172 b 686 7 671 93 675 40 l 686 0 l 536 0 b 521 110 528 28 524 69 l 521 147 b 518 143 519 146 519 144 b 271 -17 471 50 388 -17 m 231 988 l 368 839 l 369 839 l 506 988 l 626 988 l 461 771 l 274 771 l 110 988 m 208 182 b 317 82 208 117 258 82 b 519 336 431 82 519 193 l 519 361 l 329 308 b 208 182 247 288 208 244 "},"â":{"ha":758,"x_min":0,"x_max":0,"o":"m 271 -17 b 51 174 151 -17 51 47 b 269 400 51 296 138 372 l 518 454 l 518 478 b 357 608 518 556 461 608 b 206 467 276 608 210 572 l 58 467 b 356 714 63 619 176 714 b 671 457 563 714 671 608 l 671 172 b 686 7 671 93 675 40 l 686 0 l 536 0 b 521 110 528 28 524 69 l 521 147 b 518 143 519 146 519 144 b 271 -17 471 50 388 -17 m 275 988 l 463 988 l 626 771 l 503 771 l 369 919 l 235 771 l 111 771 m 208 182 b 317 82 208 117 258 82 b 519 336 431 82 519 193 l 519 361 l 329 308 b 208 182 247 288 208 244 "},"ä":{"ha":758,"x_min":0,"x_max":0,"o":"m 271 -17 b 51 174 151 -17 51 47 b 269 400 51 296 138 372 l 518 454 l 518 478 b 357 608 518 556 461 608 b 206 467 276 608 210 572 l 58 467 b 356 714 63 619 176 714 b 671 457 563 714 671 608 l 671 172 b 686 7 671 93 675 40 l 686 0 l 536 0 b 521 110 528 28 524 69 l 521 147 b 518 143 519 146 519 144 b 271 -17 471 50 388 -17 m 129 903 b 211 983 129 946 167 983 b 290 903 254 983 290 946 b 211 821 290 860 254 821 b 129 903 167 821 129 860 m 208 182 b 317 82 208 117 258 82 b 519 336 431 82 519 193 l 519 361 l 329 308 b 208 182 247 288 208 244 m 446 903 b 526 983 446 946 482 983 b 606 903 569 983 606 946 b 526 821 606 860 569 821 b 446 903 482 821 446 860 "},"à":{"ha":758,"x_min":0,"x_max":0,"o":"m 271 -17 b 51 174 151 -17 51 47 b 269 400 51 296 138 372 l 518 454 l 518 478 b 357 608 518 556 461 608 b 206 467 276 608 210 572 l 58 467 b 356 714 63 619 176 714 b 671 457 563 714 671 608 l 671 172 b 686 7 671 93 675 40 l 686 0 l 536 0 b 521 110 528 28 524 69 l 521 147 b 518 143 519 146 519 144 b 271 -17 471 50 388 -17 m 326 988 l 439 771 l 333 771 l 181 988 m 208 182 b 317 82 208 117 258 82 b 519 336 431 82 519 193 l 519 361 l 329 308 b 208 182 247 288 208 244 "},"ā":{"ha":758,"x_min":0,"x_max":0,"o":"m 271 -17 b 51 174 151 -17 51 47 b 269 400 51 296 138 372 l 518 454 l 518 478 b 357 608 518 556 461 608 b 206 467 276 608 210 572 l 58 467 b 356 714 63 619 176 714 b 671 457 563 714 671 608 l 671 172 b 686 7 671 93 675 40 l 686 0 l 536 0 b 521 110 528 28 524 69 l 521 147 b 518 143 519 146 519 144 b 271 -17 471 50 388 -17 m 208 182 b 317 82 208 117 258 82 b 519 336 431 82 519 193 l 519 361 l 329 308 b 208 182 247 288 208 244 m 208 933 l 526 933 l 526 849 l 208 849 "},"ą":{"ha":758,"x_min":0,"x_max":0,"o":"m 271 -17 b 51 174 151 -17 51 47 b 269 400 51 296 138 372 l 518 454 l 518 478 b 357 608 518 556 461 608 b 206 467 276 608 210 572 l 58 467 b 356 714 63 619 176 714 b 671 457 563 714 671 608 l 671 172 b 686 7 671 93 675 40 l 686 0 b 568 -172 622 -51 568 -119 b 625 -232 568 -207 592 -232 b 688 -211 643 -232 663 -226 l 688 -282 b 567 -314 657 -304 603 -314 b 436 -196 493 -314 436 -262 b 571 0 436 -117 504 -46 l 536 0 b 521 110 528 28 524 69 l 521 147 b 518 143 519 146 519 144 b 271 -17 471 50 388 -17 m 208 182 b 317 82 208 117 258 82 b 519 336 431 82 519 193 l 519 361 l 329 308 b 208 182 247 288 208 244 "},"å":{"ha":758,"x_min":0,"x_max":0,"o":"m 271 -17 b 51 174 151 -17 51 47 b 269 400 51 296 138 372 l 518 454 l 518 478 b 357 608 518 556 461 608 b 206 467 276 608 210 572 l 58 467 b 356 714 63 619 176 714 b 671 457 563 714 671 608 l 671 172 b 686 7 671 93 675 40 l 686 0 l 536 0 b 521 110 528 28 524 69 l 521 147 b 518 143 519 146 519 144 b 271 -17 471 50 388 -17 m 204 926 b 367 765 204 839 276 765 b 529 926 454 765 529 839 b 367 1089 529 1015 454 1089 b 204 926 276 1089 204 1015 m 208 182 b 317 82 208 117 258 82 b 519 336 431 82 519 193 l 519 361 l 329 308 b 208 182 247 288 208 244 m 292 926 b 367 1003 292 969 325 1003 b 442 926 407 1003 442 969 b 367 851 442 885 407 851 b 292 926 325 851 292 885 "},"ã":{"ha":758,"x_min":0,"x_max":0,"o":"m 271 -17 b 51 174 151 -17 51 47 b 269 400 51 296 138 372 l 518 454 l 518 478 b 357 608 518 556 461 608 b 206 467 276 608 210 572 l 58 467 b 356 714 63 619 176 714 b 671 457 563 714 671 608 l 671 172 b 686 7 671 93 675 40 l 686 0 l 536 0 b 521 110 528 28 524 69 l 521 147 b 518 143 519 146 519 144 b 271 -17 471 50 388 -17 m 92 800 b 247 965 92 900 163 965 b 383 913 300 965 342 942 b 475 868 417 889 443 868 b 542 942 519 868 542 894 l 542 971 l 646 971 l 646 928 b 490 768 646 832 575 768 b 354 822 438 768 396 792 b 261 865 321 844 294 865 b 196 792 218 865 196 835 l 196 763 l 92 763 m 208 182 b 317 82 208 117 258 82 b 519 336 431 82 519 193 l 519 361 l 329 308 b 208 182 247 288 208 244 "},"æ":{"ha":1246,"x_min":0,"x_max":0,"o":"m 874 -19 b 564 181 719 -19 613 57 l 556 161 b 279 -17 503 39 392 -17 b 58 174 160 -17 58 47 b 276 400 58 296 146 372 l 526 454 l 526 478 b 364 608 526 556 469 608 b 213 467 283 608 218 572 l 65 467 b 364 714 71 619 183 714 b 621 589 489 714 575 672 b 869 714 683 672 763 714 b 1183 382 1053 714 1176 586 b 1183 328 1186 360 1185 350 l 689 328 b 874 99 690 203 754 99 b 1022 226 943 99 1006 138 l 1181 226 b 874 -19 1154 64 1029 -19 m 217 182 b 324 82 217 117 265 82 b 526 336 438 82 526 193 l 526 361 l 336 308 b 217 182 254 288 217 244 m 1025 421 b 869 596 1019 543 947 596 b 693 421 776 596 699 531 b 693 421 693 421 694 422 "},"b":{"ha":799,"x_min":0,"x_max":0,"o":"m 449 -24 b 236 81 363 -24 288 17 l 233 0 l 88 0 l 88 989 l 239 989 l 239 615 b 239 615 239 614 239 614 b 446 713 282 669 354 713 b 743 344 610 713 743 576 b 449 -24 743 106 610 -24 m 233 343 b 413 93 233 179 299 93 b 589 343 513 93 589 172 b 413 596 589 514 506 596 b 233 343 299 596 233 506 "},"c":{"ha":758,"x_min":0,"x_max":0,"o":"m 401 -19 b 56 344 189 -19 56 132 b 403 714 56 564 200 714 b 707 465 565 714 693 621 l 551 465 b 403 596 535 557 481 596 b 214 344 300 596 214 508 b 401 99 214 200 286 99 b 551 226 471 99 536 138 l 707 226 b 401 -19 679 63 556 -19 "},"ć":{"ha":758,"x_min":0,"x_max":0,"o":"m 401 -19 b 56 344 189 -19 56 132 b 403 714 56 564 200 714 b 707 465 565 714 693 621 l 551 465 b 403 596 535 557 481 596 b 214 344 300 596 214 508 b 401 99 214 200 286 99 b 551 226 471 99 536 138 l 707 226 b 401 -19 679 63 556 -19 m 432 988 l 578 988 l 425 771 l 319 771 "},"č":{"ha":758,"x_min":0,"x_max":0,"o":"m 401 -19 b 56 344 189 -19 56 132 b 403 714 56 564 200 714 b 707 465 565 714 693 621 l 551 465 b 403 596 535 557 481 596 b 214 344 300 596 214 508 b 401 99 214 200 286 99 b 551 226 471 99 536 138 l 707 226 b 401 -19 679 63 556 -19 m 254 988 l 392 839 l 393 839 l 529 988 l 650 988 l 485 771 l 297 771 l 133 988 "},"ç":{"ha":758,"x_min":0,"x_max":0,"o":"m 406 -67 b 449 -62 419 -62 433 -62 b 557 -176 513 -69 557 -114 b 400 -308 557 -246 500 -308 b 244 -218 339 -308 275 -281 l 315 -187 b 397 -235 332 -211 358 -235 b 467 -178 433 -235 467 -217 b 404 -126 467 -147 444 -126 b 347 -140 386 -126 365 -131 l 301 -104 l 346 -15 b 56 344 167 8 56 151 b 403 714 56 564 200 714 b 707 465 565 714 693 621 l 551 465 b 403 596 535 557 481 596 b 214 344 300 596 214 508 b 401 99 214 200 286 99 b 551 226 471 99 536 138 l 707 226 b 432 -18 681 74 572 -8 l 406 -67 "},"ĉ":{"ha":758,"x_min":0,"x_max":0,"o":"m 401 -19 b 56 344 189 -19 56 132 b 403 714 56 564 200 714 b 707 465 565 714 693 621 l 551 465 b 403 596 535 557 481 596 b 214 344 300 596 214 508 b 401 99 214 200 286 99 b 551 226 471 99 536 138 l 707 226 b 401 -19 679 63 556 -19 m 299 988 l 486 988 l 650 771 l 526 771 l 393 919 l 258 771 l 135 771 "},"ċ":{"ha":758,"x_min":0,"x_max":0,"o":"m 401 -19 b 56 344 189 -19 56 132 b 403 714 56 564 200 714 b 707 465 565 714 693 621 l 551 465 b 403 596 535 557 481 596 b 214 344 300 596 214 508 b 401 99 214 200 286 99 b 551 226 471 99 536 138 l 707 226 b 401 -19 679 63 556 -19 m 297 935 b 392 1029 297 985 342 1029 b 485 935 442 1029 485 985 b 392 840 485 885 442 840 b 297 935 342 840 297 885 "},"d":{"ha":799,"x_min":0,"x_max":0,"o":"m 351 -24 b 56 344 189 -24 56 106 b 354 713 56 576 189 713 b 560 615 442 713 515 672 l 560 989 l 711 989 l 711 0 l 565 0 l 564 81 b 351 -24 513 17 436 -24 m 210 343 b 386 93 210 172 286 93 b 565 343 500 93 565 179 b 386 596 565 506 500 596 b 210 343 294 596 210 514 "},"ð":{"ha":858,"x_min":0,"x_max":0,"o":"m 426 -17 b 79 317 226 -17 79 113 b 378 624 79 499 208 624 b 628 504 481 624 574 582 b 539 768 619 603 593 699 l 464 683 l 374 683 l 492 817 b 321 881 447 853 392 876 l 367 1019 b 590 928 463 1008 535 976 l 646 990 l 736 990 l 638 879 l 639 878 b 785 415 732 764 786 588 b 426 -17 783 128 646 -17 m 233 306 b 429 100 233 193 311 100 b 622 290 539 100 604 182 b 625 315 624 299 624 307 b 422 506 628 419 533 506 b 233 306 311 506 233 429 "},"ď":{"ha":799,"x_min":0,"x_max":0,"o":"m 351 -24 b 56 344 189 -24 56 106 b 354 713 56 576 189 713 b 560 615 442 713 515 672 l 560 989 l 711 989 l 711 0 l 565 0 l 564 81 b 351 -24 513 17 436 -24 m 210 343 b 386 93 210 172 286 93 b 565 343 500 93 565 179 b 386 596 565 506 500 596 b 210 343 294 596 210 514 m 775 761 b 881 849 838 753 882 790 b 790 921 833 844 790 871 b 876 1006 790 967 824 1006 b 981 879 947 1006 981 949 b 849 704 981 789 924 718 b 775 703 821 699 799 699 "},"đ":{"ha":783,"x_min":0,"x_max":0,"o":"m 351 -24 b 56 344 189 -24 56 106 b 354 713 56 576 189 713 b 560 615 442 713 515 672 l 560 783 l 322 783 l 322 900 l 560 900 l 560 989 l 711 989 l 711 900 l 754 900 l 754 783 l 711 783 l 711 0 l 565 0 l 564 81 b 351 -24 513 17 436 -24 m 210 343 b 386 93 210 172 286 93 b 565 343 500 93 565 179 b 386 596 565 506 500 596 b 210 343 294 596 210 514 "},"e":{"ha":778,"x_min":0,"x_max":0,"o":"m 407 -19 b 56 353 188 -19 56 133 b 396 714 56 565 188 714 b 715 382 581 714 707 586 b 714 328 717 360 715 350 l 215 328 b 401 99 217 203 282 99 b 549 226 471 99 533 138 l 708 226 b 407 -19 681 64 563 -19 m 553 419 b 396 594 547 542 474 594 b 221 421 304 594 228 531 l 221 419 "},"é":{"ha":778,"x_min":0,"x_max":0,"o":"m 407 -19 b 56 353 188 -19 56 133 b 396 714 56 565 188 714 b 715 382 581 714 707 586 b 714 328 717 360 715 350 l 215 328 b 401 99 217 203 282 99 b 549 226 471 99 533 138 l 708 226 b 407 -19 681 64 563 -19 m 553 419 b 396 594 547 542 474 594 b 221 421 304 594 228 531 l 221 419 m 426 988 l 572 988 l 419 771 l 314 771 "},"ě":{"ha":778,"x_min":0,"x_max":0,"o":"m 407 -19 b 56 353 188 -19 56 133 b 396 714 56 565 188 714 b 715 382 581 714 707 586 b 714 328 717 360 715 350 l 215 328 b 401 99 217 203 282 99 b 549 226 471 99 533 138 l 708 226 b 407 -19 681 64 563 -19 m 249 988 l 386 839 l 388 839 l 524 988 l 644 988 l 479 771 l 292 771 l 128 988 m 553 419 b 396 594 547 542 474 594 b 221 421 304 594 228 531 l 221 419 "},"ê":{"ha":778,"x_min":0,"x_max":0,"o":"m 407 -19 b 56 353 188 -19 56 133 b 396 714 56 565 188 714 b 715 382 581 714 707 586 b 714 328 717 360 715 350 l 215 328 b 401 99 217 203 282 99 b 549 226 471 99 533 138 l 708 226 b 407 -19 681 64 563 -19 m 293 988 l 481 988 l 644 771 l 521 771 l 388 919 l 253 771 l 129 771 m 553 419 b 396 594 547 542 474 594 b 221 421 304 594 228 531 l 221 419 "},"ë":{"ha":778,"x_min":0,"x_max":0,"o":"m 407 -19 b 56 353 188 -19 56 133 b 396 714 56 565 188 714 b 715 382 581 714 707 586 b 714 328 717 360 715 350 l 215 328 b 401 99 217 203 282 99 b 549 226 471 99 533 138 l 708 226 b 407 -19 681 64 563 -19 m 147 903 b 229 983 147 946 185 983 b 308 903 272 983 308 946 b 229 821 308 860 272 821 b 147 903 185 821 147 860 m 553 419 b 396 594 547 542 474 594 b 221 421 304 594 228 531 l 221 419 m 464 903 b 544 983 464 946 500 983 b 624 903 588 983 624 946 b 544 821 624 860 588 821 b 464 903 500 821 464 860 "},"ė":{"ha":778,"x_min":0,"x_max":0,"o":"m 407 -19 b 56 353 188 -19 56 133 b 396 714 56 565 188 714 b 715 382 581 714 707 586 b 714 328 717 360 715 350 l 215 328 b 401 99 217 203 282 99 b 549 226 471 99 533 138 l 708 226 b 407 -19 681 64 563 -19 m 553 419 b 396 594 547 542 474 594 b 221 421 304 594 228 531 l 221 419 m 292 935 b 386 1029 292 985 336 1029 b 479 935 436 1029 479 985 b 386 840 479 885 436 840 b 292 935 336 840 292 885 "},"è":{"ha":778,"x_min":0,"x_max":0,"o":"m 407 -19 b 56 353 188 -19 56 133 b 396 714 56 565 188 714 b 715 382 581 714 707 586 b 714 328 717 360 715 350 l 215 328 b 401 99 217 203 282 99 b 549 226 471 99 533 138 l 708 226 b 407 -19 681 64 563 -19 m 344 988 l 457 771 l 351 771 l 199 988 m 553 419 b 396 594 547 542 474 594 b 221 421 304 594 228 531 l 221 419 "},"ē":{"ha":778,"x_min":0,"x_max":0,"o":"m 407 -19 b 56 353 188 -19 56 133 b 396 714 56 565 188 714 b 715 382 581 714 707 586 b 714 328 717 360 715 350 l 215 328 b 401 99 217 203 282 99 b 549 226 471 99 533 138 l 708 226 b 407 -19 681 64 563 -19 m 553 419 b 396 594 547 542 474 594 b 221 421 304 594 228 531 l 221 419 m 226 933 l 544 933 l 544 849 l 226 849 "},"ę":{"ha":778,"x_min":0,"x_max":0,"o":"m 553 419 b 396 594 547 542 474 594 b 221 421 304 594 228 531 l 221 419 l 553 419 m 56 353 b 396 714 56 565 188 714 b 715 382 581 714 707 586 b 714 328 717 360 715 350 l 215 328 b 401 99 217 203 282 99 b 549 226 471 99 533 138 l 708 226 b 542 6 689 115 628 42 b 424 -167 478 -46 424 -114 b 481 -226 424 -201 447 -226 b 543 -206 499 -226 518 -221 l 543 -276 b 422 -308 513 -299 458 -308 b 292 -190 349 -308 292 -257 b 393 -19 292 -124 339 -64 b 56 353 182 -12 56 138 "},"ẽ":{"ha":778,"x_min":0,"x_max":0,"o":"m 407 -19 b 56 353 188 -19 56 133 b 396 714 56 565 188 714 b 715 382 581 714 707 586 b 714 328 717 360 715 350 l 215 328 b 401 99 217 203 282 99 b 549 226 471 99 533 138 l 708 226 b 407 -19 681 64 563 -19 m 110 800 b 265 965 110 900 181 965 b 401 913 318 965 360 942 b 493 868 435 889 461 868 b 560 942 538 868 560 894 l 560 971 l 664 971 l 664 928 b 508 768 664 832 593 768 b 372 822 456 768 414 792 b 279 865 339 844 313 865 b 214 792 236 865 214 835 l 214 763 l 110 763 m 553 419 b 396 594 547 542 474 594 b 221 421 304 594 228 531 l 221 419 "},"f":{"ha":476,"x_min":0,"x_max":0,"o":"m 24 579 l 24 694 l 124 694 l 124 821 b 336 1032 124 943 206 1032 b 453 1001 378 1032 421 1022 l 453 890 b 275 799 343 932 275 893 l 275 694 l 443 694 l 443 578 l 275 578 l 275 0 l 124 0 l 124 579 "},"g":{"ha":779,"x_min":0,"x_max":0,"o":"m 360 -310 b 57 -53 208 -310 72 -224 l 208 -53 b 365 -187 224 -147 288 -187 b 557 29 497 -187 557 -106 l 557 103 l 557 129 b 347 15 510 60 440 15 b 46 368 174 15 46 150 b 349 714 46 579 175 714 b 557 617 447 714 514 676 l 557 694 l 710 694 l 710 54 b 360 -310 710 -193 568 -310 m 201 367 b 388 126 201 199 278 126 b 560 365 488 126 560 199 b 388 604 560 536 494 604 b 201 367 286 604 201 536 "},"ğ":{"ha":779,"x_min":0,"x_max":0,"o":"m 360 -310 b 57 -53 208 -310 72 -224 l 208 -53 b 365 -187 224 -147 288 -187 b 557 29 497 -187 557 -106 l 557 103 l 557 129 b 347 15 510 60 440 15 b 46 368 174 15 46 150 b 349 714 46 579 175 714 b 557 617 447 714 514 676 l 557 694 l 710 694 l 710 54 b 360 -310 710 -193 568 -310 m 272 976 b 386 853 274 890 321 853 b 500 976 451 853 499 890 l 601 976 b 386 763 600 836 500 763 b 171 976 272 763 172 836 m 201 367 b 388 126 201 199 278 126 b 560 365 488 126 560 199 b 388 604 560 536 494 604 b 201 367 286 604 201 536 "},"ĝ":{"ha":779,"x_min":0,"x_max":0,"o":"m 360 -310 b 57 -53 208 -310 72 -224 l 208 -53 b 365 -187 224 -147 288 -187 b 557 29 497 -187 557 -106 l 557 103 l 557 129 b 347 15 510 60 440 15 b 46 368 174 15 46 150 b 349 714 46 579 175 714 b 557 617 447 714 514 676 l 557 694 l 710 694 l 710 54 b 360 -310 710 -193 568 -310 m 294 988 l 482 988 l 646 771 l 522 771 l 389 919 l 254 771 l 131 771 m 201 367 b 388 126 201 199 278 126 b 560 365 488 126 560 199 b 388 604 560 536 494 604 b 201 367 286 604 201 536 "},"ģ":{"ha":779,"x_min":0,"x_max":0,"o":"m 360 -310 b 57 -53 208 -310 72 -224 l 208 -53 b 365 -187 224 -147 288 -187 b 557 29 497 -187 557 -106 l 557 103 l 557 129 b 347 15 510 60 440 15 b 46 368 174 15 46 150 b 349 714 46 579 175 714 b 557 617 447 714 514 676 l 557 694 l 710 694 l 710 54 b 360 -310 710 -193 568 -310 m 201 367 b 388 126 201 199 278 126 b 560 365 488 126 560 199 b 388 604 560 536 494 604 b 201 367 286 604 201 536 m 275 901 b 407 1076 275 992 332 1063 b 481 1078 435 1082 457 1082 l 481 1019 b 375 932 418 1028 374 990 b 465 860 422 936 465 910 b 379 775 465 814 432 775 b 275 901 308 775 275 832 "},"ġ":{"ha":779,"x_min":0,"x_max":0,"o":"m 360 -310 b 57 -53 208 -310 72 -224 l 208 -53 b 365 -187 224 -147 288 -187 b 557 29 497 -187 557 -106 l 557 103 l 557 129 b 347 15 510 60 440 15 b 46 368 174 15 46 150 b 349 714 46 579 175 714 b 557 617 447 714 514 676 l 557 694 l 710 694 l 710 54 b 360 -310 710 -193 568 -310 m 201 367 b 388 126 201 199 278 126 b 560 365 488 126 560 199 b 388 604 560 536 494 604 b 201 367 286 604 201 536 m 293 935 b 388 1029 293 985 338 1029 b 481 935 438 1029 481 985 b 388 840 481 885 438 840 b 293 935 338 840 293 885 "},"ḡ":{"ha":779,"x_min":0,"x_max":0,"o":"m 360 -310 b 57 -53 208 -310 72 -224 l 208 -53 b 365 -187 224 -147 288 -187 b 557 29 497 -187 557 -106 l 557 103 l 557 129 b 347 15 510 60 440 15 b 46 368 174 15 46 150 b 349 714 46 579 175 714 b 557 617 447 714 514 676 l 557 694 l 710 694 l 710 54 b 360 -310 710 -193 568 -310 m 201 367 b 388 126 201 199 278 126 b 560 365 488 126 560 199 b 388 604 560 536 494 604 b 201 367 286 604 201 536 m 228 933 l 546 933 l 546 849 l 228 849 "},"h":{"ha":797,"x_min":0,"x_max":0,"o":"m 486 713 b 715 482 619 713 715 638 l 715 0 l 564 0 l 564 429 b 431 585 564 528 522 585 b 239 329 324 585 242 482 l 239 0 l 88 0 l 88 989 l 239 989 l 239 560 b 486 713 300 672 390 713 "},"ĥ":{"ha":797,"x_min":0,"x_max":0,"o":"m 486 713 b 715 482 619 713 715 638 l 715 0 l 564 0 l 564 429 b 431 585 564 528 522 585 b 239 329 324 585 242 482 l 239 0 l 88 0 l 88 989 l 239 989 l 239 560 b 486 713 300 672 390 713 m 293 1282 l 481 1282 l 644 1065 l 521 1065 l 388 1214 l 253 1065 l 129 1065 "},"i":{"ha":335,"x_min":0,"x_max":0,"o":"m 243 694 l 243 0 l 90 0 l 90 694 m 74 935 b 168 1029 74 985 118 1029 b 261 935 218 1029 261 985 b 168 840 261 885 218 840 b 74 935 118 840 74 885 "},"ı":{"ha":303,"x_min":0,"x_max":0,"o":"m 228 694 l 228 0 l 75 0 l 75 694 "},"í":{"ha":303,"x_min":0,"x_max":0,"o":"m 228 694 l 228 0 l 75 0 l 75 694 m 192 988 l 338 988 l 185 771 l 79 771 "},"î":{"ha":303,"x_min":0,"x_max":0,"o":"m 228 694 l 228 0 l 75 0 l 75 694 m 58 988 l 246 988 l 410 771 l 286 771 l 153 919 l 18 771 l -106 771 "},"ï":{"ha":303,"x_min":0,"x_max":0,"o":"m 228 694 l 228 0 l 75 0 l 75 694 m -87 903 b -6 983 -87 946 -50 983 b 74 903 38 983 74 946 b -6 821 74 860 38 821 b -87 903 -50 821 -87 860 m 229 903 b 310 983 229 946 265 983 b 389 903 353 983 389 946 b 310 821 389 860 353 821 b 229 903 265 821 229 860 "},"ì":{"ha":303,"x_min":0,"x_max":0,"o":"m 228 694 l 228 0 l 75 0 l 75 694 m 110 988 l 222 771 l 117 771 l -36 988 "},"ĳ":{"ha":664,"x_min":0,"x_max":0,"o":"m 243 694 l 243 0 l 90 0 l 90 694 m 74 935 b 168 1029 74 985 118 1029 b 261 935 218 1029 261 985 b 168 840 261 885 218 840 b 74 935 118 840 74 885 m 267 -161 b 421 -39 382 -193 421 -151 l 421 694 l 574 694 l 574 -94 b 267 -297 574 -258 465 -343 m 404 935 b 499 1029 404 985 449 1029 b 592 935 549 1029 592 985 b 499 840 592 885 549 840 b 404 935 449 840 404 885 "},"ī":{"ha":303,"x_min":0,"x_max":0,"o":"m 228 694 l 228 0 l 75 0 l 75 694 m -7 933 l 311 933 l 311 849 l -7 849 "},"į":{"ha":303,"x_min":0,"x_max":0,"o":"m 228 694 l 228 0 b 110 -172 164 -51 110 -119 b 167 -232 110 -207 133 -232 b 229 -211 185 -232 204 -226 l 229 -282 b 108 -314 199 -304 144 -314 b -22 -196 35 -314 -22 -262 b 113 0 -22 -117 46 -46 l 75 0 l 75 694 m 58 935 b 153 1029 58 985 103 1029 b 246 935 203 1029 246 985 b 153 840 246 885 203 840 b 58 935 103 840 58 885 "},"ĩ":{"ha":303,"x_min":0,"x_max":0,"o":"m 228 694 l 228 0 l 75 0 l 75 694 m -125 800 b 31 965 -125 900 -54 965 b 167 913 83 965 125 942 b 258 868 200 889 226 868 b 325 942 303 868 325 894 l 325 971 l 429 971 l 429 928 b 274 768 429 832 358 768 b 138 822 221 768 179 792 b 44 865 104 844 78 865 b -21 792 1 865 -21 835 l -21 763 l -125 763 "},"j":{"ha":407,"x_min":0,"x_max":0,"o":"m 8 -161 b 163 -39 124 -193 163 -151 l 163 694 l 315 694 l 315 -94 b 8 -297 315 -258 207 -343 l 8 -161 m 146 935 b 240 1029 146 985 190 1029 b 333 935 290 1029 333 985 b 240 840 333 885 290 840 b 146 935 190 840 146 885 "},"ȷ":{"ha":389,"x_min":0,"x_max":0,"o":"m 10 -161 b 164 -39 125 -193 164 -151 l 164 694 l 315 694 l 315 -94 b 10 -297 315 -258 207 -343 l 10 -161 "},"ĵ":{"ha":389,"x_min":0,"x_max":0,"o":"m 10 -161 b 164 -39 125 -193 164 -151 l 164 694 l 315 694 l 315 -94 b 10 -297 315 -258 207 -343 l 10 -161 m 147 988 l 335 988 l 499 771 l 375 771 l 242 919 l 107 771 l -17 771 "},"k":{"ha":747,"x_min":0,"x_max":0,"o":"m 688 694 l 414 426 l 710 0 l 549 0 l 321 335 l 239 256 l 239 0 l 88 0 l 88 989 l 239 989 l 239 424 l 510 694 "},"ķ":{"ha":747,"x_min":0,"x_max":0,"o":"m 688 694 l 414 426 l 710 0 l 549 0 l 321 335 l 239 256 l 239 0 l 88 0 l 88 989 l 239 989 l 239 424 l 510 694 m 283 -328 b 389 -240 346 -336 390 -299 b 299 -168 342 -244 299 -218 b 385 -83 299 -122 332 -83 b 489 -210 456 -83 489 -140 b 357 -385 489 -300 432 -371 b 283 -386 329 -390 307 -390 "},"l":{"ha":326,"x_min":0,"x_max":0,"o":"m 239 989 l 239 0 l 88 0 l 88 989 "},"ĺ":{"ha":326,"x_min":0,"x_max":0,"o":"m 239 989 l 239 0 l 88 0 l 88 989 m 204 1404 l 350 1404 l 197 1188 l 92 1188 "},"ľ":{"ha":326,"x_min":0,"x_max":0,"o":"m 239 989 l 239 0 l 88 0 l 88 989 m 349 883 b 454 971 411 875 456 913 b 364 1043 407 967 364 993 b 450 1128 364 1089 397 1128 b 554 1001 521 1128 554 1071 b 422 826 554 911 497 840 b 349 825 394 821 372 821 "},"ļ":{"ha":326,"x_min":0,"x_max":0,"o":"m 239 989 l 239 0 l 88 0 l 88 989 m 64 -328 b 169 -240 126 -336 171 -299 b 79 -168 122 -244 79 -218 b 165 -83 79 -122 113 -83 b 269 -210 236 -83 269 -140 b 138 -385 269 -300 213 -371 b 64 -386 110 -390 88 -390 "},"ł":{"ha":394,"x_min":0,"x_max":0,"o":"m 125 581 l 125 989 l 276 989 l 276 725 l 388 832 l 388 661 l 276 554 l 276 0 l 125 0 l 125 410 l 7 296 l 7 467 "},"m":{"ha":1264,"x_min":0,"x_max":0,"o":"m 1031 429 b 897 585 1031 528 989 585 b 710 385 793 585 726 506 l 710 0 l 558 0 l 558 429 b 425 585 558 528 517 585 b 233 329 318 585 236 482 l 233 0 l 82 0 l 82 694 l 233 694 l 233 560 b 481 713 294 672 385 713 b 701 557 590 713 675 661 b 953 713 764 676 854 713 b 1182 474 1086 713 1182 629 l 1182 0 l 1031 0 l 1031 429 "},"n":{"ha":792,"x_min":0,"x_max":0,"o":"m 233 694 l 233 560 b 481 713 294 672 385 713 b 710 482 614 713 710 638 l 710 0 l 558 0 l 558 429 b 425 585 558 528 517 585 b 233 329 318 585 236 482 l 233 0 l 82 0 l 82 694 "},"ń":{"ha":792,"x_min":0,"x_max":0,"o":"m 233 694 l 233 560 b 481 713 294 672 385 713 b 710 482 614 713 710 638 l 710 0 l 558 0 l 558 429 b 425 585 558 528 517 585 b 233 329 318 585 236 482 l 233 0 l 82 0 l 82 694 m 447 988 l 593 988 l 440 771 l 335 771 "},"ň":{"ha":792,"x_min":0,"x_max":0,"o":"m 233 694 l 233 560 b 481 713 294 672 385 713 b 710 482 614 713 710 638 l 710 0 l 558 0 l 558 429 b 425 585 558 528 517 585 b 233 329 318 585 236 482 l 233 0 l 82 0 l 82 694 m 269 988 l 407 839 l 408 839 l 544 988 l 665 988 l 500 771 l 313 771 l 149 988 "},"ņ":{"ha":792,"x_min":0,"x_max":0,"o":"m 233 694 l 233 560 b 481 713 294 672 385 713 b 710 482 614 713 710 638 l 710 0 l 558 0 l 558 429 b 425 585 558 528 517 585 b 233 329 318 585 236 482 l 233 0 l 82 0 l 82 694 m 307 -328 b 413 -240 369 -336 414 -299 b 322 -168 365 -244 322 -218 b 408 -83 322 -122 356 -83 b 513 -210 479 -83 513 -140 b 381 -385 513 -300 456 -371 b 307 -386 353 -390 331 -390 "},"ñ":{"ha":792,"x_min":0,"x_max":0,"o":"m 233 694 l 233 560 b 481 713 294 672 385 713 b 710 482 614 713 710 638 l 710 0 l 558 0 l 558 429 b 425 585 558 528 517 585 b 233 329 318 585 236 482 l 233 0 l 82 0 l 82 694 m 131 800 b 286 965 131 900 201 965 b 422 913 339 965 381 942 b 514 868 456 889 482 868 b 581 942 558 868 581 894 l 581 971 l 685 971 l 685 928 b 529 768 685 832 614 768 b 393 822 476 768 435 792 b 300 865 360 844 333 865 b 235 792 257 865 235 835 l 235 763 l 131 763 "},"o":{"ha":788,"x_min":0,"x_max":0,"o":"m 394 -21 b 56 344 193 -21 56 118 b 394 714 56 564 193 714 b 732 344 596 714 732 564 b 394 -21 732 118 596 -21 m 214 344 b 394 97 214 182 293 97 b 574 344 496 97 574 182 b 394 596 574 508 496 596 b 214 344 293 596 214 508 "},"ó":{"ha":788,"x_min":0,"x_max":0,"o":"m 394 -21 b 56 344 193 -21 56 118 b 394 714 56 564 193 714 b 732 344 596 714 732 564 b 394 -21 732 118 596 -21 m 214 344 b 394 97 214 182 293 97 b 574 344 496 97 574 182 b 394 596 574 508 496 596 b 214 344 293 596 214 508 m 435 988 l 581 988 l 428 771 l 322 771 "},"ô":{"ha":788,"x_min":0,"x_max":0,"o":"m 394 -21 b 56 344 193 -21 56 118 b 394 714 56 564 193 714 b 732 344 596 714 732 564 b 394 -21 732 118 596 -21 m 301 988 l 489 988 l 653 771 l 529 771 l 396 919 l 261 771 l 138 771 m 214 344 b 394 97 214 182 293 97 b 574 344 496 97 574 182 b 394 596 574 508 496 596 b 214 344 293 596 214 508 "},"ö":{"ha":788,"x_min":0,"x_max":0,"o":"m 394 -21 b 56 344 193 -21 56 118 b 394 714 56 564 193 714 b 732 344 596 714 732 564 b 394 -21 732 118 596 -21 m 156 903 b 238 983 156 946 193 983 b 317 903 281 983 317 946 b 238 821 317 860 281 821 b 156 903 193 821 156 860 m 214 344 b 394 97 214 182 293 97 b 574 344 496 97 574 182 b 394 596 574 508 496 596 b 214 344 293 596 214 508 m 472 903 b 553 983 472 946 508 983 b 632 903 596 983 632 946 b 553 821 632 860 596 821 b 472 903 508 821 472 860 "},"ò":{"ha":788,"x_min":0,"x_max":0,"o":"m 394 -21 b 56 344 193 -21 56 118 b 394 714 56 564 193 714 b 732 344 596 714 732 564 b 394 -21 732 118 596 -21 m 353 988 l 465 771 l 360 771 l 207 988 m 214 344 b 394 97 214 182 293 97 b 574 344 496 97 574 182 b 394 596 574 508 496 596 b 214 344 293 596 214 508 "},"ő":{"ha":788,"x_min":0,"x_max":0,"o":"m 394 -21 b 56 344 193 -21 56 118 b 394 714 56 564 193 714 b 732 344 596 714 732 564 b 394 -21 732 118 596 -21 m 338 988 l 476 988 l 303 771 l 200 771 m 214 344 b 394 97 214 182 293 97 b 574 344 496 97 574 182 b 394 596 574 508 496 596 b 214 344 293 596 214 508 m 536 988 l 675 988 l 501 771 l 399 771 "},"ō":{"ha":788,"x_min":0,"x_max":0,"o":"m 394 -21 b 56 344 193 -21 56 118 b 394 714 56 564 193 714 b 732 344 596 714 732 564 b 394 -21 732 118 596 -21 m 214 344 b 394 97 214 182 293 97 b 574 344 496 97 574 182 b 394 596 574 508 496 596 b 214 344 293 596 214 508 m 235 933 l 553 933 l 553 849 l 235 849 "},"ø":{"ha":788,"x_min":0,"x_max":0,"o":"m 161 65 b 56 344 94 128 56 224 b 394 714 56 564 193 714 b 572 667 463 714 522 697 l 599 706 l 686 706 l 629 622 b 732 344 694 557 732 460 b 394 -21 732 118 596 -21 b 219 22 328 -21 269 -6 l 188 -25 l 100 -25 m 214 344 b 247 190 214 281 226 229 l 497 558 b 394 596 469 583 433 596 b 214 344 293 596 214 508 m 294 132 b 394 97 322 108 357 97 b 574 344 496 97 574 182 b 543 496 574 406 563 457 l 294 132 "},"õ":{"ha":788,"x_min":0,"x_max":0,"o":"m 394 -21 b 56 344 193 -21 56 118 b 394 714 56 564 193 714 b 732 344 596 714 732 564 b 394 -21 732 118 596 -21 m 118 800 b 274 965 118 900 189 965 b 410 913 326 965 368 942 b 501 868 443 889 469 868 b 568 942 546 868 568 894 l 568 971 l 672 971 l 672 928 b 517 768 672 832 601 768 b 381 822 464 768 422 792 b 288 865 347 844 321 865 b 222 792 244 865 222 835 l 222 763 l 118 763 m 214 344 b 394 97 214 182 293 97 b 574 344 496 97 574 182 b 394 596 574 508 496 596 b 214 344 293 596 214 508 "},"œ":{"ha":1296,"x_min":0,"x_max":0,"o":"m 394 -21 b 56 344 193 -21 56 118 b 394 714 56 564 193 714 b 651 597 503 714 592 671 b 914 714 711 671 801 714 b 1233 382 1099 714 1225 586 b 1232 328 1235 360 1233 350 l 733 328 b 919 99 735 203 800 99 b 1067 226 989 99 1051 138 l 1226 226 b 925 -19 1199 64 1081 -19 b 656 97 808 -19 717 24 b 394 -21 596 21 506 -21 m 214 344 b 394 97 214 182 293 97 b 574 344 496 97 574 182 b 394 596 574 508 496 596 b 214 344 293 596 214 508 m 1071 419 b 914 594 1065 542 992 594 b 739 421 822 594 746 531 l 739 419 "},"p":{"ha":799,"x_min":0,"x_max":0,"o":"m 447 718 b 743 350 610 718 743 589 b 444 -18 743 118 610 -18 b 239 79 357 -18 283 22 l 239 -294 l 88 -294 l 88 694 l 233 694 l 235 614 b 447 718 286 678 363 718 m 233 351 b 413 99 233 189 299 99 b 589 351 504 99 589 181 b 413 601 589 522 513 601 b 233 351 299 601 233 515 "},"þ":{"ha":799,"x_min":0,"x_max":0,"o":"m 88 989 l 239 989 l 239 615 b 239 615 239 614 239 614 b 446 713 282 669 354 713 b 743 344 610 713 743 576 b 449 -24 743 106 610 -24 b 236 81 363 -24 288 17 l 233 0 l 233 -294 l 88 -294 m 233 343 b 413 93 233 179 299 93 b 589 343 513 93 589 172 b 413 596 589 514 506 596 b 233 343 299 596 233 506 "},"q":{"ha":799,"x_min":0,"x_max":0,"o":"m 350 718 b 563 614 436 718 511 678 l 565 694 l 711 694 l 711 -294 l 560 -294 l 560 79 b 560 79 560 81 560 81 b 353 -18 517 25 444 -18 b 56 350 189 -18 56 118 b 350 718 56 589 189 718 m 210 351 b 386 99 210 181 293 99 b 565 351 500 99 565 189 b 386 601 565 515 500 601 b 210 351 286 601 210 522 "},"r":{"ha":496,"x_min":0,"x_max":0,"o":"m 82 694 l 233 694 l 233 568 b 389 710 268 656 319 699 b 463 713 413 715 436 715 l 463 578 b 408 579 444 581 426 581 b 233 332 297 564 233 461 l 233 0 l 82 0 "},"ŕ":{"ha":496,"x_min":0,"x_max":0,"o":"m 82 694 l 233 694 l 233 568 b 389 710 268 656 319 699 b 463 713 413 715 436 715 l 463 578 b 408 579 444 581 426 581 b 233 332 297 564 233 461 l 233 0 l 82 0 m 289 988 l 435 988 l 282 771 l 176 771 "},"ř":{"ha":496,"x_min":0,"x_max":0,"o":"m 82 694 l 233 694 l 233 568 b 389 710 268 656 319 699 b 463 713 413 715 436 715 l 463 578 b 408 579 444 581 426 581 b 233 332 297 564 233 461 l 233 0 l 82 0 m 111 988 l 249 839 l 250 839 l 386 988 l 507 988 l 342 771 l 154 771 l -10 988 "},"ŗ":{"ha":496,"x_min":0,"x_max":0,"o":"m 82 694 l 233 694 l 233 568 b 389 710 268 656 319 699 b 463 713 413 715 436 715 l 463 578 b 408 579 444 581 426 581 b 233 332 297 564 233 461 l 233 0 l 82 0 m 60 -328 b 165 -240 122 -336 167 -299 b 75 -168 118 -244 75 -218 b 161 -83 75 -122 108 -83 b 265 -210 232 -83 265 -140 b 133 -385 265 -300 208 -371 b 60 -386 106 -390 83 -390 "},"s":{"ha":714,"x_min":0,"x_max":0,"o":"m 376 -19 b 43 213 147 -19 49 65 l 197 213 b 372 97 199 143 253 97 b 517 188 481 97 517 139 b 394 288 517 240 479 268 l 253 321 b 71 504 147 344 71 394 b 353 714 71 624 172 714 b 650 497 535 714 650 644 l 508 497 b 357 599 508 561 457 599 b 225 514 274 599 225 563 b 356 419 225 454 282 438 l 490 383 b 671 189 604 354 671 301 b 376 -19 671 65 574 -19 "},"ś":{"ha":714,"x_min":0,"x_max":0,"o":"m 376 -19 b 43 213 147 -19 49 65 l 197 213 b 372 97 199 143 253 97 b 517 188 481 97 517 139 b 394 288 517 240 479 268 l 253 321 b 71 504 147 344 71 394 b 353 714 71 624 172 714 b 650 497 535 714 650 644 l 508 497 b 357 599 508 561 457 599 b 225 514 274 599 225 563 b 356 419 225 454 282 438 l 490 383 b 671 189 604 354 671 301 b 376 -19 671 65 574 -19 m 400 988 l 546 988 l 393 771 l 288 771 "},"š":{"ha":714,"x_min":0,"x_max":0,"o":"m 376 -19 b 43 213 147 -19 49 65 l 197 213 b 372 97 199 143 253 97 b 517 188 481 97 517 139 b 394 288 517 240 479 268 l 253 321 b 71 504 147 344 71 394 b 353 714 71 624 172 714 b 650 497 535 714 650 644 l 508 497 b 357 599 508 561 457 599 b 225 514 274 599 225 563 b 356 419 225 454 282 438 l 490 383 b 671 189 604 354 671 301 b 376 -19 671 65 574 -19 m 222 988 l 360 839 l 361 839 l 497 988 l 618 988 l 453 771 l 265 771 l 101 988 "},"ş":{"ha":714,"x_min":0,"x_max":0,"o":"m 375 -67 b 418 -62 389 -62 403 -62 b 526 -176 482 -69 526 -114 b 369 -308 526 -246 469 -308 b 214 -218 308 -308 244 -281 l 285 -187 b 367 -235 301 -211 328 -235 b 436 -178 403 -235 436 -217 b 374 -126 436 -147 414 -126 b 317 -140 356 -126 335 -131 l 271 -104 l 315 -17 b 43 213 129 -3 49 79 l 197 213 b 372 97 199 143 253 97 b 517 188 481 97 517 139 b 394 288 517 240 479 268 l 253 321 b 71 504 147 344 71 394 b 353 714 71 624 172 714 b 650 497 535 714 650 644 l 508 497 b 357 599 508 561 457 599 b 225 514 274 599 225 563 b 356 419 225 454 282 438 l 490 383 b 671 189 604 354 671 301 b 401 -19 671 71 582 -12 l 375 -67 "},"ŝ":{"ha":714,"x_min":0,"x_max":0,"o":"m 376 -19 b 43 213 147 -19 49 65 l 197 213 b 372 97 199 143 253 97 b 517 188 481 97 517 139 b 394 288 517 240 479 268 l 253 321 b 71 504 147 344 71 394 b 353 714 71 624 172 714 b 650 497 535 714 650 644 l 508 497 b 357 599 508 561 457 599 b 225 514 274 599 225 563 b 356 419 225 454 282 438 l 490 383 b 671 189 604 354 671 301 b 376 -19 671 65 574 -19 m 267 988 l 454 988 l 618 771 l 494 771 l 361 919 l 226 771 l 103 771 "},"ș":{"ha":714,"x_min":0,"x_max":0,"o":"m 376 -19 b 43 213 147 -19 49 65 l 197 213 b 372 97 199 143 253 97 b 517 188 481 97 517 139 b 394 288 517 240 479 268 l 253 321 b 71 504 147 344 71 394 b 353 714 71 624 172 714 b 650 497 535 714 650 644 l 508 497 b 357 599 508 561 457 599 b 225 514 274 599 225 563 b 356 419 225 454 282 438 l 490 383 b 671 189 604 354 671 301 b 376 -19 671 65 574 -19 m 261 -328 b 367 -240 324 -336 368 -299 b 276 -168 319 -244 276 -218 b 363 -83 276 -122 310 -83 b 467 -210 433 -83 467 -140 b 335 -385 467 -300 410 -371 b 261 -386 307 -390 285 -390 "},"ß":{"ha":822,"x_min":0,"x_max":0,"o":"m 351 -187 l 429 -187 b 606 -12 531 -187 607 -140 b 429 165 604 94 532 165 l 351 165 l 351 288 l 415 288 b 599 440 532 288 599 347 b 439 589 599 532 539 589 b 239 410 322 589 246 524 l 239 0 l 88 0 l 88 989 l 239 989 l 239 618 b 472 713 276 672 353 713 b 761 450 646 713 761 599 b 596 225 761 340 707 265 b 767 -32 711 182 767 97 b 418 -308 765 -210 631 -308 l 351 -308 "},"t":{"ha":474,"x_min":0,"x_max":0,"o":"m 436 10 b 185 25 358 -33 246 -28 b 114 192 133 71 114 136 l 114 578 l 19 578 l 19 694 l 114 694 l 114 879 l 260 1001 l 265 1001 l 265 694 l 410 694 l 410 578 l 265 578 l 265 229 b 436 125 265 122 331 79 l 436 10 "},"ť":{"ha":446,"x_min":0,"x_max":0,"o":"m 436 10 b 185 25 358 -33 246 -28 b 114 192 133 71 114 136 l 114 578 l 19 578 l 19 694 l 114 694 l 114 879 l 260 1001 l 265 1001 l 265 694 l 410 694 l 410 578 l 265 578 l 265 229 b 436 125 265 122 331 79 l 436 10 m 339 839 b 444 926 401 831 446 868 b 354 999 397 922 354 949 b 440 1083 354 1044 388 1083 b 544 957 511 1083 544 1026 b 413 782 544 867 488 796 b 339 781 385 776 363 776 "},"ţ":{"ha":474,"x_min":0,"x_max":0,"o":"m 436 10 b 335 -18 406 -7 371 -17 l 308 -67 b 351 -62 322 -62 336 -62 b 460 -176 415 -69 460 -114 b 303 -308 460 -246 403 -308 b 147 -218 242 -308 178 -281 l 218 -187 b 300 -235 235 -211 261 -235 b 369 -178 336 -235 369 -217 b 307 -126 369 -147 347 -126 b 250 -140 289 -126 268 -131 l 204 -104 l 251 -10 b 185 25 226 -3 203 10 b 114 192 133 71 114 136 l 114 578 l 19 578 l 19 694 l 114 694 l 114 879 l 260 1001 l 265 1001 l 265 694 l 410 694 l 410 578 l 265 578 l 265 229 b 436 125 265 122 331 79 l 436 10 "},"ț":{"ha":474,"x_min":0,"x_max":0,"o":"m 436 10 b 185 25 358 -33 246 -28 b 114 192 133 71 114 136 l 114 578 l 19 578 l 19 694 l 114 694 l 114 879 l 260 1001 l 265 1001 l 265 694 l 410 694 l 410 578 l 265 578 l 265 229 b 436 125 265 122 331 79 l 436 10 m 194 -328 b 300 -240 257 -336 301 -299 b 210 -168 253 -244 210 -218 b 296 -83 210 -122 243 -83 b 400 -210 367 -83 400 -140 b 268 -385 400 -300 343 -371 b 194 -386 240 -390 218 -390 "},"u":{"ha":792,"x_min":0,"x_max":0,"o":"m 558 0 l 558 135 b 311 -18 497 22 407 -18 b 82 213 178 -18 82 57 l 82 694 l 233 694 l 233 265 b 367 110 233 167 275 110 b 558 365 474 110 556 213 l 558 694 l 710 694 l 710 0 "},"ú":{"ha":792,"x_min":0,"x_max":0,"o":"m 558 0 l 558 135 b 311 -18 497 22 407 -18 b 82 213 178 -18 82 57 l 82 694 l 233 694 l 233 265 b 367 110 233 167 275 110 b 558 365 474 110 556 213 l 558 694 l 710 694 l 710 0 m 421 988 l 567 988 l 414 771 l 308 771 "},"ŭ":{"ha":792,"x_min":0,"x_max":0,"o":"m 558 0 l 558 135 b 311 -18 497 22 407 -18 b 82 213 178 -18 82 57 l 82 694 l 233 694 l 233 265 b 367 110 233 167 275 110 b 558 365 474 110 556 213 l 558 694 l 710 694 l 710 0 m 265 976 b 379 853 267 890 314 853 b 493 976 444 853 492 890 l 594 976 b 379 763 593 836 493 763 b 164 976 265 763 165 836 "},"û":{"ha":792,"x_min":0,"x_max":0,"o":"m 558 0 l 558 135 b 311 -18 497 22 407 -18 b 82 213 178 -18 82 57 l 82 694 l 233 694 l 233 265 b 367 110 233 167 275 110 b 558 365 474 110 556 213 l 558 694 l 710 694 l 710 0 m 288 988 l 475 988 l 639 771 l 515 771 l 382 919 l 247 771 l 124 771 "},"ü":{"ha":792,"x_min":0,"x_max":0,"o":"m 558 0 l 558 135 b 311 -18 497 22 407 -18 b 82 213 178 -18 82 57 l 82 694 l 233 694 l 233 265 b 367 110 233 167 275 110 b 558 365 474 110 556 213 l 558 694 l 710 694 l 710 0 m 142 903 b 224 983 142 946 179 983 b 303 903 267 983 303 946 b 224 821 303 860 267 821 b 142 903 179 821 142 860 m 458 903 b 539 983 458 946 494 983 b 618 903 582 983 618 946 b 539 821 618 860 582 821 b 458 903 494 821 458 860 "},"ù":{"ha":792,"x_min":0,"x_max":0,"o":"m 558 0 l 558 135 b 311 -18 497 22 407 -18 b 82 213 178 -18 82 57 l 82 694 l 233 694 l 233 265 b 367 110 233 167 275 110 b 558 365 474 110 556 213 l 558 694 l 710 694 l 710 0 m 339 988 l 451 771 l 346 771 l 193 988 "},"ư":{"ha":792,"x_min":0,"x_max":0,"o":"m 558 0 l 558 135 b 311 -18 497 22 407 -18 b 82 213 178 -18 82 57 l 82 694 l 233 694 l 233 265 b 367 110 233 167 275 110 b 558 365 474 110 556 213 l 558 694 l 694 694 b 768 756 740 694 768 708 l 768 817 l 874 817 l 874 743 b 710 589 874 647 813 589 l 710 0 "},"ű":{"ha":792,"x_min":0,"x_max":0,"o":"m 558 0 l 558 135 b 311 -18 497 22 407 -18 b 82 213 178 -18 82 57 l 82 694 l 233 694 l 233 265 b 367 110 233 167 275 110 b 558 365 474 110 556 213 l 558 694 l 710 694 l 710 0 m 324 988 l 463 988 l 289 771 l 186 771 m 522 988 l 661 988 l 488 771 l 385 771 "},"ū":{"ha":792,"x_min":0,"x_max":0,"o":"m 558 0 l 558 135 b 311 -18 497 22 407 -18 b 82 213 178 -18 82 57 l 82 694 l 233 694 l 233 265 b 367 110 233 167 275 110 b 558 365 474 110 556 213 l 558 694 l 710 694 l 710 0 m 221 933 l 539 933 l 539 849 l 221 849 "},"ų":{"ha":792,"x_min":0,"x_max":0,"o":"m 696 0 b 578 -172 632 -51 578 -119 b 635 -232 578 -207 601 -232 b 697 -211 653 -232 672 -226 l 697 -282 b 576 -314 667 -304 613 -314 b 446 -196 503 -314 446 -262 b 581 0 446 -117 514 -46 l 558 0 l 558 135 b 311 -18 497 22 407 -18 b 82 213 178 -18 82 57 l 82 694 l 233 694 l 233 265 b 367 110 233 167 275 110 b 558 365 474 110 556 213 l 558 694 l 710 694 l 710 0 "},"ů":{"ha":792,"x_min":0,"x_max":0,"o":"m 558 0 l 558 135 b 311 -18 497 22 407 -18 b 82 213 178 -18 82 57 l 82 694 l 233 694 l 233 265 b 367 110 233 167 275 110 b 558 365 474 110 556 213 l 558 694 l 710 694 l 710 0 m 217 926 b 379 765 217 839 289 765 b 542 926 467 765 542 839 b 379 1089 542 1015 467 1089 b 217 926 289 1089 217 1015 m 304 926 b 379 1003 304 969 338 1003 b 454 926 419 1003 454 969 b 379 851 454 885 419 851 b 304 926 338 851 304 885 "},"ũ":{"ha":792,"x_min":0,"x_max":0,"o":"m 558 0 l 558 135 b 311 -18 497 22 407 -18 b 82 213 178 -18 82 57 l 82 694 l 233 694 l 233 265 b 367 110 233 167 275 110 b 558 365 474 110 556 213 l 558 694 l 710 694 l 710 0 m 104 800 b 260 965 104 900 175 965 b 396 913 313 965 354 942 b 488 868 429 889 456 868 b 554 942 532 868 554 894 l 554 971 l 658 971 l 658 928 b 503 768 658 832 588 768 b 367 822 450 768 408 792 b 274 865 333 844 307 865 b 208 792 231 865 208 835 l 208 763 l 104 763 "},"v":{"ha":750,"x_min":0,"x_max":0,"o":"m 736 694 l 450 0 l 300 0 l 15 694 l 189 694 l 376 181 l 563 694 "},"w":{"ha":1121,"x_min":0,"x_max":0,"o":"m 15 694 l 192 694 l 342 182 l 343 182 l 481 694 l 640 694 l 778 182 l 779 182 l 929 694 l 1106 694 l 872 0 l 703 0 l 560 501 l 418 0 l 249 0 "},"ẃ":{"ha":1121,"x_min":0,"x_max":0,"o":"m 15 694 l 192 694 l 342 182 l 343 182 l 481 694 l 640 694 l 778 182 l 779 182 l 929 694 l 1106 694 l 872 0 l 703 0 l 560 501 l 418 0 l 249 0 m 601 988 l 747 988 l 594 771 l 489 771 "},"ŵ":{"ha":1121,"x_min":0,"x_max":0,"o":"m 15 694 l 192 694 l 342 182 l 343 182 l 481 694 l 640 694 l 778 182 l 779 182 l 929 694 l 1106 694 l 872 0 l 703 0 l 560 501 l 418 0 l 249 0 m 468 988 l 656 988 l 819 771 l 696 771 l 563 919 l 428 771 l 304 771 "},"ẅ":{"ha":1121,"x_min":0,"x_max":0,"o":"m 15 694 l 192 694 l 342 182 l 343 182 l 481 694 l 640 694 l 778 182 l 779 182 l 929 694 l 1106 694 l 872 0 l 703 0 l 560 501 l 418 0 l 249 0 m 321 903 b 403 983 321 946 358 983 b 482 903 446 983 482 946 b 403 821 482 860 446 821 b 321 903 358 821 321 860 m 638 903 b 718 983 638 946 674 983 b 797 903 761 983 797 946 b 718 821 797 860 761 821 b 638 903 674 821 638 860 "},"ẁ":{"ha":1121,"x_min":0,"x_max":0,"o":"m 15 694 l 192 694 l 342 182 l 343 182 l 481 694 l 640 694 l 778 182 l 779 182 l 929 694 l 1106 694 l 872 0 l 703 0 l 560 501 l 418 0 l 249 0 m 518 988 l 631 771 l 525 771 l 372 988 "},"x":{"ha":721,"x_min":0,"x_max":0,"o":"m 701 694 l 440 349 l 701 0 l 535 0 l 358 240 l 186 0 l 19 0 l 278 349 l 19 694 l 193 694 l 360 460 l 528 694 "},"y":{"ha":744,"x_min":0,"x_max":0,"o":"m 306 19 l 24 694 l 186 694 l 378 185 l 558 694 l 722 694 l 326 -294 l 175 -294 "},"ý":{"ha":744,"x_min":0,"x_max":0,"o":"m 306 19 l 24 694 l 186 694 l 378 185 l 558 694 l 722 694 l 326 -294 l 175 -294 m 432 988 l 578 988 l 425 771 l 319 771 "},"ŷ":{"ha":744,"x_min":0,"x_max":0,"o":"m 306 19 l 24 694 l 186 694 l 378 185 l 558 694 l 722 694 l 326 -294 l 175 -294 m 299 988 l 486 988 l 650 771 l 526 771 l 393 919 l 258 771 l 135 771 "},"ÿ":{"ha":744,"x_min":0,"x_max":0,"o":"m 306 19 l 24 694 l 186 694 l 378 185 l 558 694 l 722 694 l 326 -294 l 175 -294 m 151 903 b 233 983 151 946 189 983 b 313 903 276 983 313 946 b 233 821 313 860 276 821 b 151 903 189 821 151 860 m 468 903 b 549 983 468 946 504 983 b 628 903 592 983 628 946 b 549 821 628 860 592 821 b 468 903 504 821 468 860 "},"ỳ":{"ha":744,"x_min":0,"x_max":0,"o":"m 306 19 l 24 694 l 186 694 l 378 185 l 558 694 l 722 694 l 326 -294 l 175 -294 m 349 988 l 461 771 l 356 771 l 203 988 "},"ỹ":{"ha":744,"x_min":0,"x_max":0,"o":"m 306 19 l 24 694 l 186 694 l 378 185 l 558 694 l 722 694 l 326 -294 l 175 -294 m 114 800 b 269 965 114 900 185 965 b 406 913 322 965 364 942 b 497 868 439 889 465 868 b 564 942 542 868 564 894 l 564 971 l 668 971 l 668 928 b 513 768 668 832 597 768 b 376 822 460 768 418 792 b 283 865 343 844 317 865 b 218 792 240 865 218 835 l 218 763 l 114 763 "},"z":{"ha":703,"x_min":0,"x_max":0,"o":"m 54 694 l 649 694 l 649 557 l 243 118 l 649 118 l 649 0 l 54 0 l 54 128 l 471 575 l 54 575 "},"ź":{"ha":703,"x_min":0,"x_max":0,"o":"m 54 694 l 649 694 l 649 557 l 243 118 l 649 118 l 649 0 l 54 0 l 54 128 l 471 575 l 54 575 m 392 988 l 538 988 l 385 771 l 279 771 "},"ž":{"ha":703,"x_min":0,"x_max":0,"o":"m 54 694 l 649 694 l 649 557 l 243 118 l 649 118 l 649 0 l 54 0 l 54 128 l 471 575 l 54 575 m 214 988 l 351 839 l 353 839 l 489 988 l 610 988 l 444 771 l 257 771 l 93 988 "},"ż":{"ha":703,"x_min":0,"x_max":0,"o":"m 54 694 l 649 694 l 649 557 l 243 118 l 649 118 l 649 0 l 54 0 l 54 128 l 471 575 l 54 575 m 258 935 b 353 1029 258 985 303 1029 b 446 935 403 1029 446 985 b 353 840 446 885 403 840 b 258 935 303 840 258 885 "},"ﬁ":{"ha":794,"x_min":0,"x_max":0,"o":"m 24 579 l 24 694 l 124 694 l 124 821 b 336 1032 124 943 206 1032 b 453 1001 378 1032 421 1022 l 453 890 b 275 799 343 932 275 893 l 275 694 l 443 694 l 443 578 l 275 578 l 275 0 l 124 0 l 124 579 m 535 935 b 629 1029 535 985 579 1029 b 722 935 679 1029 722 985 b 629 840 722 885 679 840 b 535 935 579 840 535 885 m 551 694 l 704 694 l 704 0 l 551 0 "},"ﬂ":{"ha":790,"x_min":0,"x_max":0,"o":"m 24 579 l 24 694 l 124 694 l 124 821 b 336 1032 124 943 206 1032 b 453 1001 378 1032 421 1022 l 453 890 b 275 799 343 932 275 893 l 275 694 l 443 694 l 443 578 l 275 578 l 275 0 l 124 0 l 124 579 m 551 989 l 703 989 l 703 0 l 551 0 "},"¹":{"ha":300,"x_min":0,"x_max":0,"o":"m 28 707 l 28 835 l 164 989 l 272 989 l 272 329 l 167 329 l 167 863 "},"²":{"ha":543,"x_min":0,"x_max":0,"o":"m 36 401 b 94 456 51 417 72 435 b 250 601 146 504 207 558 b 307 651 269 619 289 636 b 392 800 356 700 392 739 b 275 907 392 854 354 907 b 143 753 189 907 143 857 l 32 753 b 281 1000 35 899 113 1000 b 501 810 419 1000 501 918 b 207 433 501 683 422 633 b 182 414 199 428 192 421 l 511 414 l 511 326 l 36 326 l 36 401 "},"³":{"ha":538,"x_min":0,"x_max":0,"o":"m 404 664 b 510 500 475 635 510 582 b 272 314 510 386 417 314 b 28 532 104 314 26 417 l 139 532 b 275 404 139 461 182 404 b 393 511 342 404 393 442 b 275 617 393 583 342 617 l 192 617 l 192 708 l 265 708 b 393 814 342 708 393 744 b 275 913 393 875 347 913 b 153 788 197 913 154 871 l 42 788 b 282 1004 40 910 119 1004 b 510 819 419 1004 510 931 b 404 664 510 743 475 693 "},"⁄":{"ha":825,"x_min":0,"x_max":0,"o":"m 753 989 l 903 989 l 161 0 l 11 0 "},"½":{"ha":1239,"x_min":0,"x_max":0,"o":"m 28 707 l 28 835 l 164 989 l 272 989 l 272 329 l 167 329 l 167 863 m 840 989 l 990 989 l 249 0 l 99 0 m 728 425 b 976 672 731 571 808 672 b 1197 482 1115 672 1197 590 b 903 106 1197 356 1118 306 b 878 86 894 100 888 93 l 1207 86 l 1207 -1 l 732 -1 l 732 74 b 790 128 747 89 768 107 b 946 274 842 176 903 231 b 1003 324 965 292 985 308 b 1088 472 1051 372 1088 411 b 971 579 1088 526 1050 579 b 839 425 885 579 839 529 l 728 425 "},"⅓":{"ha":1251,"x_min":0,"x_max":0,"o":"m 844 989 l 994 989 l 253 0 l 103 0 m 28 835 l 164 989 l 272 989 l 272 329 l 167 329 l 167 863 l 28 707 m 853 203 b 989 75 853 132 896 75 b 1107 182 1056 75 1107 113 b 989 288 1107 254 1056 288 l 906 288 l 906 379 l 979 379 b 1107 485 1056 379 1107 415 b 989 583 1107 546 1061 583 b 867 458 911 583 868 542 l 756 458 b 996 675 754 581 833 675 b 1224 490 1133 675 1224 601 b 1118 335 1224 414 1189 364 b 1224 171 1189 306 1224 253 b 986 -15 1224 57 1131 -15 b 742 203 818 -15 740 88 "},".":{"ha":279,"x_min":0,"x_max":0,"o":"m 139 -8 b 49 82 89 -8 49 33 b 139 175 49 133 89 175 b 231 82 190 175 231 133 b 139 -8 231 33 190 -8 "},",":{"ha":344,"x_min":0,"x_max":0,"o":"m 67 -90 b 172 -3 129 -99 174 -61 b 82 69 125 -7 82 19 b 168 154 82 115 115 154 b 272 28 239 154 272 97 b 140 -147 272 -62 215 -133 b 67 -149 113 -153 90 -153 l 67 -90 "},":":{"ha":322,"x_min":0,"x_max":0,"o":"m 167 -8 b 76 82 117 -8 76 33 b 167 175 76 133 117 175 b 258 82 218 175 258 133 b 167 -8 258 33 218 -8 m 76 593 b 167 686 76 644 117 686 b 258 593 218 686 258 644 b 167 503 258 544 218 503 b 76 593 117 503 76 544 "},";":{"ha":346,"x_min":0,"x_max":0,"o":"m 71 -90 b 176 -3 133 -99 178 -61 b 86 69 129 -7 86 19 b 172 154 86 115 119 154 b 276 28 243 154 276 97 b 144 -147 276 -62 219 -133 b 71 -149 117 -153 94 -153 l 71 -90 m 89 596 b 179 689 89 647 129 689 b 271 596 231 689 271 647 b 179 506 271 547 231 506 b 89 596 129 506 89 547 "},"…":{"ha":932,"x_min":0,"x_max":0,"o":"m 783 -8 b 693 82 733 -8 693 33 b 783 175 693 133 733 175 b 875 82 835 175 875 133 b 783 -8 875 33 835 -8 m 71 82 b 161 175 71 133 111 175 b 253 82 213 175 253 133 b 161 -8 253 33 213 -8 b 71 82 111 -8 71 33 m 382 82 b 472 175 382 133 422 175 b 564 82 524 175 564 133 b 472 -8 564 33 524 -8 b 382 82 422 -8 382 33 "},"!":{"ha":311,"x_min":0,"x_max":0,"o":"m 69 989 l 236 989 l 222 264 l 83 264 m 69 75 b 160 168 69 126 110 168 b 251 75 211 168 251 126 b 160 -14 251 28 211 -14 b 69 75 110 -14 69 28 "},"¡":{"ha":315,"x_min":0,"x_max":0,"o":"m 247 -282 l 81 -282 l 94 443 l 233 443 m 65 632 b 157 722 65 681 106 722 b 247 632 207 722 247 681 b 157 539 247 581 207 539 b 65 632 106 539 65 581 "},"?":{"ha":785,"x_min":0,"x_max":0,"o":"m 244 343 b 313 482 244 403 269 453 b 482 583 363 514 428 551 b 576 725 542 619 576 647 b 401 871 576 804 507 871 b 208 699 265 871 208 806 l 47 699 b 413 1006 47 907 199 1006 b 739 735 594 1006 739 906 b 600 515 739 610 660 549 b 464 435 553 489 513 464 b 401 333 421 408 401 379 l 401 264 l 244 264 l 244 343 m 239 75 b 329 168 239 126 279 168 b 421 75 381 168 421 126 b 329 -14 421 28 381 -14 b 239 75 279 -14 239 28 "},"¿":{"ha":767,"x_min":0,"x_max":0,"o":"m 468 504 b 400 365 468 444 443 394 b 231 264 350 333 285 296 b 136 122 171 228 136 200 b 311 -24 136 43 206 -24 b 504 149 447 -24 504 42 l 665 149 b 300 -158 665 -60 514 -158 b -26 113 118 -158 -26 -58 b 113 332 -26 238 53 299 b 249 413 160 358 200 383 b 311 514 292 439 311 468 l 311 583 l 468 583 l 468 504 m 292 772 b 383 863 292 821 332 863 b 474 772 433 863 474 821 b 383 679 474 721 433 679 b 292 772 332 679 292 721 "},"·":{"ha":264,"x_min":0,"x_max":0,"o":"m 139 269 b 49 360 89 269 49 311 b 139 453 49 411 89 453 b 231 360 190 453 231 411 b 139 269 231 311 190 269 "},"•":{"ha":622,"x_min":0,"x_max":0,"o":"m 321 124 b 69 375 181 124 69 240 b 321 635 69 518 181 635 b 576 375 464 635 576 518 b 321 124 576 240 464 124 "},"*":{"ha":606,"x_min":0,"x_max":0,"o":"m 521 714 l 358 669 l 475 544 l 399 486 l 303 626 l 207 486 l 132 544 l 247 669 l 85 714 l 117 804 l 268 739 l 254 911 l 351 911 l 339 739 l 490 804 "},"#":{"ha":1069,"x_min":0,"x_max":0,"o":"m 214 310 l 46 310 l 46 403 l 247 403 l 324 615 l 143 615 l 143 708 l 357 708 l 457 989 l 567 989 l 465 708 l 675 708 l 775 989 l 886 989 l 785 708 l 958 708 l 958 615 l 751 615 l 675 403 l 861 403 l 861 310 l 640 310 l 529 0 l 422 0 l 533 310 l 321 310 l 210 0 l 103 0 m 565 403 l 642 615 l 432 615 l 356 403 "},"/":{"ha":564,"x_min":0,"x_max":0,"o":"m 403 1008 l 529 1008 l 161 -24 l 35 -24 "},"\\":{"ha":631,"x_min":0,"x_max":0,"o":"m 401 -24 l 33 1008 l 160 1008 l 528 -24 "},"(":{"ha":643,"x_min":0,"x_max":0,"o":"m 622 1025 b 206 486 400 1025 206 824 b 622 -50 206 147 400 -50 l 622 -171 b 64 492 357 -171 64 33 b 622 1146 64 947 357 1146 l 622 1025 "},")":{"ha":639,"x_min":0,"x_max":0,"o":"m 17 -50 b 433 489 239 -50 433 151 b 17 1025 433 828 239 1025 l 17 1146 b 575 483 282 1146 575 942 b 17 -171 575 28 282 -171 l 17 -50 "},"{":{"ha":424,"x_min":0,"x_max":0,"o":"m 33 508 b 107 569 90 508 107 529 l 107 935 b 254 1082 107 1026 161 1082 l 371 1082 l 371 964 l 311 964 b 229 881 264 964 229 931 l 229 550 b 172 450 229 504 214 469 b 229 350 214 431 229 396 l 229 19 b 311 -64 229 -31 264 -64 l 371 -64 l 371 -182 l 254 -182 b 107 -35 161 -182 107 -126 l 107 331 b 33 392 107 371 90 392 l 33 508 "},"}":{"ha":424,"x_min":0,"x_max":0,"o":"m 53 -64 l 113 -64 b 194 19 160 -64 194 -31 l 194 350 b 251 450 194 396 211 431 b 194 550 211 469 194 504 l 194 881 b 113 964 194 931 160 964 l 53 964 l 53 1082 l 169 1082 b 317 935 263 1082 317 1026 l 317 569 b 390 508 317 529 333 508 l 390 392 b 317 331 333 392 317 371 l 317 -35 b 169 -182 317 -126 263 -182 l 53 -182 "},"[":{"ha":531,"x_min":0,"x_max":0,"o":"m 514 1154 l 514 1051 l 215 1051 l 215 -93 l 514 -93 l 514 -196 l 75 -196 l 75 1154 "},"]":{"ha":531,"x_min":0,"x_max":0,"o":"m 17 -82 l 315 -82 l 315 1039 l 17 1039 l 17 1143 l 456 1143 l 456 -185 l 17 -185 "},"-":{"ha":571,"x_min":0,"x_max":0,"o":"m 501 331 l 69 331 l 69 447 l 501 447 "},"–":{"ha":899,"x_min":0,"x_max":0,"o":"m 828 447 l 828 331 l 69 331 l 69 447 "},"—":{"ha":1250,"x_min":0,"x_max":0,"o":"m 1181 447 l 1181 331 l 69 331 l 69 447 "},"_":{"ha":919,"x_min":0,"x_max":0,"o":"m 850 -53 l 850 -169 l 69 -169 l 69 -53 "},"‚":{"ha":300,"x_min":0,"x_max":0,"o":"m 67 -90 b 172 -3 129 -99 174 -61 b 82 69 125 -7 82 19 b 168 154 82 115 115 154 b 272 28 239 154 272 97 b 140 -147 272 -62 215 -133 b 67 -149 113 -153 90 -153 l 67 -90 "},"„":{"ha":465,"x_min":0,"x_max":0,"o":"m 6 -90 b 111 -3 68 -99 113 -61 b 21 69 64 -7 21 19 b 107 154 21 115 54 154 b 211 28 178 154 211 97 b 79 -147 211 -62 154 -133 b 6 -149 51 -153 29 -153 l 6 -90 m 246 -90 b 351 -3 308 -99 353 -61 b 261 69 304 -7 261 19 b 347 154 261 115 294 154 b 451 28 418 154 451 97 b 319 -147 451 -62 394 -133 b 246 -149 292 -153 269 -153 "},"“":{"ha":465,"x_min":0,"x_max":0,"o":"m 461 964 b 356 876 399 972 354 935 b 446 804 403 881 446 854 b 360 719 446 758 413 719 b 256 846 289 719 256 776 b 388 1021 256 936 313 1007 b 461 1022 415 1026 438 1026 l 461 964 m 14 846 b 146 1021 14 936 71 1007 b 219 1022 174 1026 196 1026 l 219 964 b 114 876 157 972 113 935 b 204 804 161 881 204 854 b 118 719 204 758 171 719 b 14 846 47 719 14 776 "},"”":{"ha":482,"x_min":0,"x_max":0,"o":"m 13 785 b 118 872 75 776 119 814 b 28 944 71 868 28 894 b 114 1029 28 990 61 1029 b 218 903 185 1029 218 972 b 86 728 218 813 161 742 b 13 726 58 722 36 722 l 13 785 m 253 785 b 358 872 315 776 360 814 b 268 944 311 868 268 894 b 354 1029 268 990 301 1029 b 458 903 425 1029 458 972 b 326 728 458 813 401 742 b 253 726 299 722 276 722 "},"‘":{"ha":264,"x_min":0,"x_max":0,"o":"m 247 965 b 142 878 185 974 140 936 b 232 806 189 882 232 856 b 146 721 232 760 199 721 b 42 847 75 721 42 778 b 174 1022 42 938 99 1008 b 247 1024 201 1028 224 1028 l 247 965 "},"’":{"ha":269,"x_min":0,"x_max":0,"o":"m 43 785 b 149 872 106 776 150 814 b 58 944 101 868 58 894 b 144 1029 58 990 92 1029 b 249 903 215 1029 249 972 b 117 728 249 813 192 742 b 43 726 89 722 67 722 l 43 785 "},"«":{"ha":624,"x_min":0,"x_max":0,"o":"m 318 681 l 318 535 l 149 340 l 318 149 l 318 14 l 56 306 l 56 378 m 306 378 l 568 681 l 568 535 l 399 340 l 568 149 l 568 14 l 306 306 "},"»":{"ha":624,"x_min":0,"x_max":0,"o":"m 568 306 l 306 14 l 306 149 l 475 340 l 306 535 l 306 681 l 568 378 m 56 149 l 225 340 l 56 535 l 56 681 l 318 378 l 318 306 l 56 14 "},"‹":{"ha":374,"x_min":0,"x_max":0,"o":"m 318 681 l 318 535 l 149 340 l 318 149 l 318 14 l 56 306 l 56 378 "},"›":{"ha":374,"x_min":0,"x_max":0,"o":"m 318 306 l 56 14 l 56 149 l 225 340 l 56 535 l 56 681 l 318 378 "},"\"":{"ha":392,"x_min":0,"x_max":0,"o":"m 256 1057 l 250 710 l 125 710 l 118 1057 "},"'":{"ha":318,"x_min":0,"x_max":0,"o":"m 218 1057 l 213 710 l 119 710 l 113 1057 "},"¢":{"ha":758,"x_min":0,"x_max":0,"o":"m 368 -18 b 56 344 175 -3 56 143 b 368 713 56 551 183 696 l 368 868 l 421 868 l 421 714 b 707 465 575 707 693 615 l 551 465 b 421 594 536 550 489 589 l 421 100 b 551 226 483 107 538 146 l 707 226 b 421 -19 681 69 565 -12 l 421 -174 l 368 -174 m 214 344 b 368 101 214 214 272 119 l 368 593 b 214 344 282 575 214 489 "},"¤":{"ha":833,"x_min":0,"x_max":0,"o":"m 590 494 b 403 686 592 606 511 686 b 215 494 294 686 214 606 b 403 301 214 382 294 301 b 590 494 511 301 592 382 m 158 325 b 106 494 125 372 106 431 b 160 661 106 557 125 614 l 58 763 l 132 836 l 235 733 b 403 785 282 765 340 785 b 572 735 465 785 524 767 l 674 836 l 747 763 l 647 663 b 700 494 681 615 700 557 b 646 325 700 429 681 372 l 747 225 l 674 151 l 572 253 b 403 203 524 221 465 203 b 232 253 338 203 279 221 l 132 151 l 58 225 "},"$":{"ha":900,"x_min":0,"x_max":0,"o":"m 486 1128 l 486 1007 b 821 704 682 996 813 908 l 658 704 b 486 875 658 804 603 863 l 486 578 l 575 554 b 844 274 747 510 844 429 b 486 -19 844 89 694 -11 l 486 -156 l 425 -156 l 425 -18 b 56 315 215 -8 56 96 l 221 315 b 425 114 222 185 300 124 l 425 439 l 318 468 b 74 726 167 507 74 586 b 425 1008 74 890 203 1003 l 425 1128 m 235 742 b 425 593 235 658 307 622 l 425 878 b 235 742 307 875 235 818 m 486 113 b 683 260 607 119 683 171 b 517 414 683 343 622 388 l 486 422 l 486 113 "},"€":{"ha":1001,"x_min":0,"x_max":0,"o":"m 583 539 l 231 539 b 229 499 229 526 229 513 b 232 449 229 482 231 465 l 583 449 l 583 393 l 240 393 b 539 117 275 228 390 117 b 782 299 674 117 764 192 l 939 299 b 531 -17 906 104 749 -17 b 75 393 294 -17 115 143 l -36 393 l -36 449 l 68 449 b 67 500 67 465 67 482 b 68 539 67 513 67 526 l -36 539 l -36 593 l 74 593 b 532 1003 110 843 292 1003 b 933 669 751 1003 919 869 l 778 669 b 536 871 765 783 682 871 b 238 593 385 871 269 758 l 583 593 "},"ƒ":{"ha":564,"x_min":0,"x_max":0,"o":"m 28 -93 b 206 0 138 -135 206 -94 l 207 0 l 207 579 l 107 579 l 107 694 l 207 694 l 207 821 b 419 1032 207 943 289 1032 b 536 1001 461 1032 504 1022 l 536 890 b 358 799 426 932 358 893 l 358 694 l 526 694 l 526 578 l 358 578 l 358 -22 b 144 -235 358 -146 276 -235 b 28 -204 103 -235 60 -224 l 28 -93 "},"£":{"ha":778,"x_min":0,"x_max":0,"o":"m 746 0 l 28 0 l 28 118 b 165 294 121 122 165 178 l 165 438 l 38 438 l 38 547 l 165 547 l 165 701 b 467 1006 165 893 275 1006 b 746 739 635 1006 742 903 l 613 739 b 469 888 608 831 554 888 b 317 701 371 888 317 824 l 317 547 l 508 547 l 508 438 l 317 438 l 317 296 b 253 114 317 231 300 154 l 746 114 "},"¥":{"ha":928,"x_min":0,"x_max":0,"o":"m 746 379 l 546 379 l 543 374 l 543 329 l 746 329 l 746 282 l 543 282 l 543 0 l 386 0 l 386 282 l 182 282 l 182 329 l 386 329 l 386 374 l 383 379 l 182 379 l 182 426 l 357 426 l 43 989 l 218 989 l 464 525 l 711 989 l 885 989 l 572 426 l 746 426 "},"+":{"ha":835,"x_min":0,"x_max":0,"o":"m 765 290 l 475 290 l 475 1 l 360 1 l 360 290 l 69 290 l 69 407 l 360 407 l 360 694 l 475 694 l 475 407 l 765 407 "},"−":{"ha":833,"x_min":0,"x_max":0,"o":"m 765 322 l 69 322 l 69 438 l 765 438 "},"×":{"ha":768,"x_min":0,"x_max":0,"o":"m 671 144 b 589 61 643 117 615 89 l 385 267 l 181 63 b 99 143 153 89 125 117 l 303 347 l 97 553 b 179 635 124 581 153 608 l 385 431 l 588 633 b 669 551 615 606 643 579 l 467 349 l 671 144 "},"÷":{"ha":833,"x_min":0,"x_max":0,"o":"m 422 546 b 332 636 372 546 332 588 b 422 729 332 688 372 729 b 514 636 474 729 514 688 b 422 546 514 588 474 546 m 69 438 l 765 438 l 765 322 l 69 322 m 332 133 b 422 226 332 185 372 226 b 514 133 474 226 514 185 b 422 43 514 85 474 43 b 332 133 372 43 332 85 "},"=":{"ha":833,"x_min":0,"x_max":0,"o":"m 764 129 l 69 129 l 69 246 l 764 246 m 69 563 l 764 563 l 764 447 l 69 447 "},"≠":{"ha":833,"x_min":0,"x_max":0,"o":"m 639 794 l 550 563 l 764 563 l 764 447 l 506 447 l 428 246 l 764 246 l 764 129 l 383 129 l 307 -69 l 196 -69 l 272 129 l 69 129 l 69 246 l 317 246 l 394 447 l 69 447 l 69 563 l 439 563 l 528 794 "},">":{"ha":771,"x_min":0,"x_max":0,"o":"m 692 274 l 78 -10 l 78 133 l 558 353 l 78 571 l 78 714 l 692 431 "},"<":{"ha":763,"x_min":0,"x_max":0,"o":"m 689 571 l 208 353 l 689 133 l 689 -10 l 75 274 l 75 431 l 689 714 "},"≥":{"ha":833,"x_min":0,"x_max":0,"o":"m 694 471 l 81 188 l 81 331 l 561 550 l 81 768 l 81 911 l 694 628 m 69 63 l 765 63 l 765 -53 l 69 -53 "},"≤":{"ha":835,"x_min":0,"x_max":0,"o":"m 722 768 l 242 550 l 722 331 l 722 188 l 108 471 l 108 628 l 722 911 m 71 63 l 767 63 l 767 -53 l 71 -53 "},"±":{"ha":750,"x_min":0,"x_max":0,"o":"m 724 514 l 433 514 l 433 225 l 318 225 l 318 514 l 28 514 l 28 631 l 318 631 l 318 918 l 433 918 l 433 631 l 724 631 m 28 163 l 724 163 l 724 47 l 28 47 "},"≈":{"ha":833,"x_min":0,"x_max":0,"o":"m 138 306 b 293 471 138 406 208 471 b 429 418 346 471 388 447 b 521 374 463 394 489 374 b 588 447 565 374 588 400 l 588 476 l 692 476 l 692 433 b 536 274 692 338 621 274 b 400 328 483 274 442 297 b 307 371 367 350 340 371 b 242 297 264 371 242 340 l 242 268 l 138 268 l 138 306 m 138 593 b 293 758 138 693 208 758 b 429 706 346 758 388 735 b 521 661 463 682 489 661 b 588 735 565 661 588 688 l 588 764 l 692 764 l 692 721 b 536 561 692 625 621 561 b 400 615 483 561 442 585 b 307 658 367 638 340 658 b 242 585 264 658 242 628 l 242 556 l 138 556 "},"~":{"ha":833,"x_min":0,"x_max":0,"o":"m 138 451 b 293 617 138 551 208 617 b 429 564 346 617 388 593 b 521 519 463 540 489 519 b 588 593 565 519 588 546 l 588 622 l 692 622 l 692 579 b 536 419 692 483 621 419 b 400 474 483 419 442 443 b 307 517 367 496 340 517 b 242 443 264 517 242 486 l 242 414 l 138 414 l 138 451 "},"¬":{"ha":833,"x_min":0,"x_max":0,"o":"m 765 438 l 765 143 l 647 143 l 647 322 l 69 322 l 69 438 "},"^":{"ha":572,"x_min":0,"x_max":0,"o":"m 192 988 l 379 988 l 543 771 l 419 771 l 286 919 l 151 771 l 28 771 "},"∞":{"ha":1157,"x_min":0,"x_max":0,"o":"m 853 707 b 1129 428 1008 707 1129 590 b 853 149 1129 265 1008 149 b 579 299 735 149 651 211 b 306 149 510 211 424 149 b 28 428 150 149 28 265 b 306 707 28 590 150 707 b 579 557 424 707 510 644 b 853 707 651 644 735 707 m 169 428 b 310 288 169 340 225 288 b 507 428 393 288 457 346 b 310 568 456 510 392 568 b 169 428 225 568 169 515 m 657 428 b 850 289 703 347 767 289 b 988 428 931 289 988 342 b 850 567 988 514 931 567 b 657 428 767 567 703 508 "},"∫":{"ha":515,"x_min":0,"x_max":0,"o":"m 28 -161 b 182 -39 143 -193 182 -151 l 182 790 b 488 993 182 954 290 1039 l 488 856 b 333 735 372 888 333 846 l 333 -94 b 28 -297 333 -258 225 -343 l 28 -161 "},"∏":{"ha":935,"x_min":0,"x_max":0,"o":"m 92 989 l 843 989 l 843 -215 l 686 -215 l 686 863 l 249 863 l 249 -215 l 92 -215 "},"∑":{"ha":638,"x_min":0,"x_max":0,"o":"m 28 117 l 308 492 l 28 872 l 28 990 l 608 990 l 608 867 l 204 867 l 476 492 l 204 124 l 610 124 l 610 0 l 28 0 "},"√":{"ha":833,"x_min":0,"x_max":0,"o":"m 189 694 l 376 181 l 722 1111 l 1043 1111 l 1043 986 l 825 986 l 450 0 l 300 0 l 15 694 "},"%":{"ha":989,"x_min":0,"x_max":0,"o":"m 793 1017 l 954 1017 l 200 0 l 39 0 m 28 800 b 244 1018 28 922 124 1018 b 463 800 365 1018 463 922 b 244 585 463 681 365 585 b 28 800 124 585 28 681 m 138 800 b 244 693 138 742 185 693 b 353 800 306 693 353 742 b 244 910 353 861 306 910 b 138 800 185 910 138 861 m 522 181 b 739 397 522 301 618 397 b 957 181 861 397 957 301 b 739 -36 957 60 861 -36 b 522 181 618 -36 522 60 m 632 181 b 739 72 632 121 679 72 b 847 181 800 72 847 121 b 739 290 847 242 800 290 b 632 181 679 290 632 240 "},"‰":{"ha":1482,"x_min":0,"x_max":0,"o":"m 1238 -36 b 1021 181 1117 -36 1021 60 b 1238 397 1021 301 1117 397 b 1454 181 1358 397 1454 301 b 1238 -36 1454 60 1358 -36 m 28 800 b 244 1018 28 922 124 1018 b 463 800 365 1018 463 922 b 244 585 463 681 365 585 b 28 800 124 585 28 681 m 793 1017 l 954 1017 l 200 0 l 39 0 m 138 800 b 244 693 138 742 185 693 b 353 800 306 693 353 742 b 244 910 353 861 306 910 b 138 800 185 910 138 861 m 522 181 b 739 397 522 301 618 397 b 957 181 861 397 957 301 b 739 -36 957 60 861 -36 b 522 181 618 -36 522 60 m 632 181 b 739 72 632 121 679 72 b 847 181 800 72 847 121 b 739 290 847 242 800 290 b 632 181 679 290 632 240 m 1129 181 b 1238 71 1129 119 1176 71 b 1346 181 1299 71 1346 119 b 1238 290 1346 242 1299 290 b 1129 181 1176 290 1129 242 "},"→":{"ha":865,"x_min":0,"x_max":0,"o":"m 88 136 l 586 497 l 586 500 l 88 860 l 88 1017 l 778 506 l 778 492 l 88 -19 "},"←":{"ha":786,"x_min":0,"x_max":0,"o":"m 699 850 l 200 489 l 200 486 l 699 126 l 699 -31 l 8 481 l 8 494 l 699 1006 "},"◊":{"ha":729,"x_min":0,"x_max":0,"o":"m 28 492 l 28 508 l 338 1017 l 392 1017 l 701 508 l 701 492 l 392 -17 l 338 -17 m 364 124 l 582 500 l 364 876 l 149 500 "},"@":{"ha":1222,"x_min":0,"x_max":0,"o":"m 610 -219 b 51 356 281 -219 51 38 b 610 931 51 674 292 931 b 1164 342 928 931 1164 674 b 942 1 1164 164 1108 1 b 767 133 850 1 781 47 b 549 15 718 61 644 15 b 249 368 375 15 249 150 b 550 714 249 579 376 714 b 758 617 649 714 715 676 l 758 694 l 911 694 l 911 211 b 990 96 911 125 950 96 b 1093 340 1067 96 1093 196 b 610 863 1093 635 890 863 b 119 356 329 863 119 636 b 610 -151 119 75 317 -151 l 782 -151 l 782 -219 l 610 -219 m 403 367 b 589 124 403 199 479 124 b 763 367 689 124 763 199 b 589 608 763 536 696 608 b 403 367 488 608 403 536 "},"&":{"ha":971,"x_min":0,"x_max":0,"o":"m 421 -19 b 46 267 193 -19 46 85 b 240 540 46 410 146 492 b 135 757 175 610 135 669 b 426 1008 135 892 240 1008 b 706 776 599 1008 707 906 b 542 551 706 664 626 597 l 475 515 l 718 264 b 757 429 744 313 757 369 l 911 429 b 819 158 911 322 876 231 l 972 0 l 757 0 l 703 57 b 421 -19 622 7 524 -19 m 207 269 b 424 113 207 171 304 113 b 614 157 501 113 564 129 l 340 443 b 207 269 275 406 207 360 m 290 765 b 383 610 290 717 335 661 l 428 632 b 550 776 500 669 550 718 b 426 883 550 833 507 883 b 290 765 342 883 290 833 "},"¶":{"ha":885,"x_min":0,"x_max":0,"o":"m 774 0 l 617 0 l 615 989 l 772 989 m 28 715 b 343 989 28 904 174 989 l 519 989 l 519 0 l 363 0 l 363 436 l 340 436 b 28 715 174 436 28 515 "},"§":{"ha":794,"x_min":0,"x_max":0,"o":"m 83 493 b 196 663 83 563 124 628 b 111 803 144 690 111 733 b 393 1011 111 922 214 1011 b 690 794 575 1011 685 943 l 550 794 b 397 897 546 860 497 897 b 265 811 314 897 265 860 b 396 717 265 751 322 735 l 496 693 b 711 486 614 665 711 625 b 599 317 711 410 672 351 b 683 176 651 289 683 246 b 401 -32 683 57 582 -32 b 104 183 219 -32 111 36 l 246 183 b 397 82 249 119 297 82 b 529 167 481 82 529 119 b 399 261 529 228 472 243 l 299 285 b 83 493 181 314 83 354 m 226 490 b 407 389 226 432 283 389 b 568 490 521 389 568 426 b 389 590 568 546 511 590 b 226 490 274 590 226 551 "},"©":{"ha":1208,"x_min":0,"x_max":0,"o":"m 604 -81 b 69 454 299 -81 69 149 b 604 989 69 760 299 989 b 1139 454 910 989 1139 760 b 604 -81 1139 149 910 -81 m 133 454 b 604 -21 133 183 336 -21 b 1075 454 872 -21 1075 183 b 604 929 1075 725 872 929 b 133 454 336 929 133 725 m 269 454 b 617 824 269 674 414 824 b 921 575 779 824 907 731 l 765 575 b 617 706 749 667 694 706 b 428 454 514 706 428 618 b 615 208 428 310 500 208 b 765 336 685 208 750 247 l 921 336 b 615 90 893 172 769 90 b 269 454 403 90 269 242 "},"®":{"ha":689,"x_min":0,"x_max":0,"o":"m 344 435 b 42 738 171 435 42 565 b 344 1040 42 911 171 1040 b 647 738 517 1040 647 911 b 344 435 647 565 517 435 m 96 738 b 344 486 96 596 203 486 b 594 738 485 486 594 596 b 344 988 594 881 485 988 b 96 738 203 988 96 881 m 228 910 l 376 910 b 472 821 435 910 472 879 b 419 744 472 785 450 756 b 457 704 439 740 451 726 l 469 656 b 489 599 475 633 481 610 l 489 592 l 429 592 l 403 696 b 363 724 396 718 385 724 l 285 724 l 285 592 l 228 592 m 357 771 b 413 817 393 771 413 789 b 364 860 413 846 394 860 l 285 860 b 285 771 285 860 285 771 "},"™":{"ha":1229,"x_min":0,"x_max":0,"o":"m 325 892 l 325 461 l 210 461 l 210 892 l 22 892 l 22 989 l 513 989 l 513 892 m 574 989 l 757 989 l 890 610 l 1025 989 l 1207 989 l 1207 461 l 1092 461 l 1092 843 l 954 463 l 826 463 l 690 843 l 690 461 l 574 461 "},"°":{"ha":461,"x_min":0,"x_max":0,"o":"m 231 619 b 35 813 121 619 35 704 b 231 1010 35 924 121 1010 b 426 813 340 1010 426 924 b 231 619 426 704 340 619 m 146 813 b 231 726 146 765 182 726 b 315 813 279 726 315 765 b 231 903 315 863 279 903 b 146 813 182 903 146 863 "},"|":{"ha":631,"x_min":0,"x_max":0,"o":"m 374 1250 l 374 -294 l 257 -294 l 257 1250 "},"¦":{"ha":631,"x_min":0,"x_max":0,"o":"m 257 1250 l 374 1250 l 374 694 l 257 694 m 257 261 l 374 261 l 374 -294 l 257 -294 "},"†":{"ha":496,"x_min":0,"x_max":0,"o":"m 42 650 l 42 765 l 172 765 l 172 997 l 325 997 l 325 765 l 454 765 l 454 650 l 325 650 l 325 0 l 172 0 l 172 650 "},"‡":{"ha":496,"x_min":0,"x_max":0,"o":"m 42 253 l 42 368 l 172 368 l 172 650 l 42 650 l 42 765 l 172 765 l 172 997 l 325 997 l 325 765 l 454 765 l 454 650 l 325 650 l 325 368 l 454 368 l 454 253 l 325 253 l 325 0 l 172 0 l 172 253 "},"̈":{"ha":0,"x_min":0,"x_max":0,"o":"m 169 821 b 88 903 125 821 88 860 b 169 983 88 946 125 983 b 249 903 213 983 249 946 b 169 821 249 860 213 821 m 404 903 b 485 983 404 946 440 983 b 564 903 528 983 564 946 b 485 821 564 860 528 821 b 404 903 440 821 404 860 "},"̇":{"ha":0,"x_min":0,"x_max":0,"o":"m 186 840 b 92 935 136 840 92 885 b 186 1029 92 985 136 1029 b 279 935 236 1029 279 985 b 186 840 279 885 236 840 "},"̀":{"ha":0,"x_min":0,"x_max":0,"o":"m 368 771 l 215 988 l 361 988 l 474 771 "},"́":{"ha":0,"x_min":0,"x_max":0,"o":"m 443 988 l 589 988 l 436 771 l 331 771 "},"̋":{"ha":0,"x_min":0,"x_max":0,"o":"m 410 988 l 549 988 l 375 771 l 272 771 m 608 988 l 747 988 l 574 771 l 471 771 "},"̂":{"ha":0,"x_min":0,"x_max":0,"o":"m 322 988 l 510 988 l 674 771 l 550 771 l 417 919 l 282 771 l 158 771 "},"̌":{"ha":0,"x_min":0,"x_max":0,"o":"m 218 988 l 339 988 l 476 839 l 478 839 l 614 988 l 735 988 l 569 771 l 382 771 "},"̆":{"ha":0,"x_min":0,"x_max":0,"o":"m 657 976 b 442 763 656 836 556 763 b 226 976 328 763 228 836 l 328 976 b 442 853 329 890 376 853 b 556 976 507 853 554 890 l 657 976 "},"̊":{"ha":0,"x_min":0,"x_max":0,"o":"m 328 851 b 253 926 286 851 253 885 b 328 1003 253 969 286 1003 b 403 926 368 1003 403 969 b 328 851 403 885 368 851 m 165 926 b 328 765 165 839 238 765 b 490 926 415 765 490 839 b 328 1089 490 1015 415 1089 b 165 926 238 1089 165 1015 "},"̃":{"ha":0,"x_min":0,"x_max":0,"o":"m 138 800 b 293 965 138 900 208 965 b 429 913 346 965 388 942 b 521 868 463 889 489 868 b 588 942 565 868 588 894 l 588 971 l 692 971 l 692 928 b 536 768 692 832 621 768 b 400 822 483 768 442 792 b 307 865 367 844 340 865 b 242 792 264 865 242 835 l 242 763 l 138 763 l 138 800 "},"̄":{"ha":0,"x_min":0,"x_max":0,"o":"m 450 849 l 132 849 l 132 933 l 450 933 "},"̒":{"ha":0,"x_min":0,"x_max":0,"o":"m 258 1019 b 153 932 196 1028 151 990 b 243 860 200 936 243 910 b 157 775 243 814 210 775 b 53 901 86 775 53 832 b 185 1076 53 992 110 1063 b 258 1078 213 1082 235 1082 l 258 1019 "},"̛":{"ha":0,"x_min":0,"x_max":0,"o":"m 140 694 l 144 694 b 218 756 190 694 218 708 l 218 817 l 324 817 l 324 743 b 160 589 324 647 263 589 l 140 589 "},"̦":{"ha":0,"x_min":0,"x_max":0,"o":"m 60 -328 b 165 -240 122 -336 167 -299 b 75 -168 118 -244 75 -218 b 161 -83 75 -122 108 -83 b 265 -210 232 -83 265 -140 b 133 -385 265 -300 208 -371 b 60 -386 106 -390 83 -390 l 60 -328 "},"̧":{"ha":0,"x_min":0,"x_max":0,"o":"m 446 -67 b 489 -62 460 -62 474 -62 b 597 -176 553 -69 597 -114 b 440 -308 597 -246 540 -308 b 285 -218 379 -308 315 -281 l 356 -187 b 438 -235 372 -211 399 -235 b 507 -178 474 -235 507 -217 b 444 -126 507 -147 485 -126 b 388 -140 426 -126 406 -131 l 342 -104 l 394 0 l 482 0 l 446 -67 "},"̨":{"ha":0,"x_min":0,"x_max":0,"o":"m 183 -314 b 53 -196 110 -314 53 -262 b 188 0 53 -117 121 -46 l 303 0 b 185 -172 239 -51 185 -119 b 242 -232 185 -207 208 -232 b 304 -211 260 -232 279 -226 l 304 -282 b 183 -314 274 -304 219 -314 "},"¨":{"ha":747,"x_min":0,"x_max":0,"o":"m 157 821 b 75 903 113 821 75 860 b 157 983 75 946 113 983 b 236 903 200 983 236 946 b 157 821 236 860 200 821 m 392 903 b 472 983 392 946 428 983 b 551 903 515 983 551 946 b 472 821 551 860 515 821 b 392 903 428 821 392 860 "},"˙":{"ha":300,"x_min":0,"x_max":0,"o":"m 157 819 b 74 903 111 819 74 857 b 157 986 74 949 111 986 b 240 903 203 986 240 949 b 157 819 240 857 203 819 "},"`":{"ha":833,"x_min":0,"x_max":0,"o":"m 468 771 l 315 988 l 461 988 l 574 771 "},"´":{"ha":833,"x_min":0,"x_max":0,"o":"m 439 988 l 585 988 l 432 771 l 326 771 "},"˝":{"ha":833,"x_min":0,"x_max":0,"o":"m 422 988 l 561 988 l 388 771 l 285 771 m 621 988 l 760 988 l 586 771 l 483 771 "},"ˆ":{"ha":833,"x_min":0,"x_max":0,"o":"m 322 988 l 510 988 l 674 771 l 550 771 l 417 919 l 282 771 l 158 771 "},"ˇ":{"ha":833,"x_min":0,"x_max":0,"o":"m 218 988 l 339 988 l 476 839 l 478 839 l 614 988 l 735 988 l 569 771 l 382 771 "},"˘":{"ha":833,"x_min":0,"x_max":0,"o":"m 657 976 b 442 763 656 836 556 763 b 226 976 328 763 228 836 l 328 976 b 442 853 329 890 376 853 b 556 976 507 853 554 890 l 657 976 "},"˚":{"ha":833,"x_min":0,"x_max":0,"o":"m 490 779 b 365 904 421 779 365 835 b 490 1029 365 974 421 1029 b 615 904 560 1029 615 974 b 490 779 615 835 560 779 m 410 904 b 490 824 410 860 446 824 b 571 904 535 824 571 860 b 490 985 571 949 535 985 b 410 904 446 985 410 949 "},"˜":{"ha":833,"x_min":0,"x_max":0,"o":"m 138 800 b 293 965 138 900 208 965 b 429 913 346 965 388 942 b 521 868 463 889 489 868 b 588 942 565 868 588 894 l 588 971 l 692 971 l 692 928 b 536 768 692 832 621 768 b 400 822 483 768 442 792 b 307 865 367 844 340 865 b 242 792 264 865 242 835 l 242 763 l 138 763 l 138 800 "},"¯":{"ha":571,"x_min":0,"x_max":0,"o":"m 450 849 l 132 849 l 132 933 l 450 933 "},"¸":{"ha":833,"x_min":0,"x_max":0,"o":"m 446 -67 b 489 -62 460 -62 474 -62 b 597 -176 553 -69 597 -114 b 440 -308 597 -246 540 -308 b 285 -218 379 -308 315 -281 l 356 -187 b 438 -235 372 -211 399 -235 b 507 -178 474 -235 507 -217 b 444 -126 507 -147 485 -126 b 388 -140 426 -126 406 -131 l 342 -104 l 394 0 l 482 0 l 446 -67 "},"˛":{"ha":833,"x_min":0,"x_max":0,"o":"m 183 -314 b 53 -196 110 -314 53 -262 b 188 0 53 -117 121 -46 l 303 0 b 185 -172 239 -51 185 -119 b 242 -232 185 -207 208 -232 b 304 -211 260 -232 279 -226 l 304 -282 b 183 -314 274 -304 219 -314 "}}}
